<svg xmlns="http://www.w3.org/2000/svg" viewBox="0 0 1200 700" width="1200" height="700"><defs><marker id="ah" markerWidth="10" markerHeight="10" refX="7.5" refY="4.5" orient="auto"><path d="M0,0.5 L9,4.5 L0,8.5" fill="none" stroke="#0A0A0A" stroke-width="1.6" stroke-linecap="round" stroke-linejoin="round"></path></marker><marker id="ahb" markerWidth="10" markerHeight="10" refX="7.5" refY="4.5" orient="auto"><path d="M0,0.5 L9,4.5 L0,8.5" fill="none" stroke="#2D7FF9" stroke-width="1.6" stroke-linecap="round" stroke-linejoin="round"></path></marker></defs><rect width="1200" height="700" fill="#F4F4F5"></rect><text font-family="Inter, &#39;DM Sans&#39;, system-ui, -apple-system, &#39;Helvetica Neue&#39;, Arial, sans-serif" x="60" y="60" font-size="13" fill="#2D7FF9" font-weight="700" text-anchor="start" dominant-baseline="middle" letter-spacing="1.5">OUTLIERS</text><text font-family="Inter, &#39;DM Sans&#39;, system-ui, -apple-system, &#39;Helvetica Neue&#39;, Arial, sans-serif" x="60" y="94" font-size="20" fill="#0A0A0A" font-weight="700" text-anchor="start" dominant-baseline="middle">Z-Score Bell Curve with Flagged Outlier</text><line x1="120" y1="570" x2="1080" y2="570" stroke="#0A0A0A" stroke-width="1.5"></line><path d="M120,570 L120,569.9985093387312 L129.59999999999997,569.9975545728134 L139.19999999999993,569.9960281982777 L148.7999999999999,569.9936132864409 L158.39999999999986,569.9898322613935 L167.99999999999983,569.9839738810429 L177.5999999999998,569.97499139849 L187.19999999999976,569.9613626345111 L196.79999999999973,569.9409006559072 L206.3999999999997,569.9105016825117 L215.99999999999966,569.865814948839 L225.59999999999968,569.8008178313987 L235.19999999999968,569.7072790324478 L244.79999999999967,569.5740935053328 L254.3999999999997,569.3864757282702 L263.9999999999997,569.1250035527269 L273.5999999999997,568.7645138367053 L283.1999999999997,568.2728639969467 L292.7999999999997,567.6095908419976 L302.39999999999975,566.7245195942504 L311.9999999999998,565.5564013847031 L312,570 Z" fill="#2D7FF9" opacity="0.2"></path><path d="M888,570 L888,565.5564013847031 L897.5999999999999,566.7245195942504 L907.1999999999999,567.6095908419976 L916.8000000000001,568.2728639969467 L926.4000000000001,568.7645138367053 L936,569.1250035527269 L945.6000000000001,569.3864757282702 L955.2,569.5740935053328 L964.8000000000001,569.7072790324478 L974.4,569.8008178313987 L984,569.865814948839 L993.6000000000001,569.9105016825117 L1003.1999999999999,569.9409006559072 L1012.8000000000001,569.9613626345111 L1022.3999999999999,569.97499139849 L1032,569.9839738810429 L1041.6,569.9898322613935 L1051.1999999999998,569.9936132864409 L1060.7999999999997,569.9960281982777 L1070.3999999999999,569.9975545728134 L1079.9999999999995,569.9985093387312 L1080,570 Z" fill="#2D7FF9" opacity="0.2"></path><polyline points="120,569.9985093387312 129.59999999999997,569.9975545728134 139.19999999999993,569.9960281982777 148.7999999999999,569.9936132864409 158.39999999999986,569.9898322613935 167.99999999999983,569.9839738810429 177.5999999999998,569.97499139849 187.19999999999976,569.9613626345111 196.79999999999973,569.9409006559072 206.3999999999997,569.9105016825117 215.99999999999966,569.865814948839 225.59999999999968,569.8008178313987 235.19999999999968,569.7072790324478 244.79999999999967,569.5740935053328 254.3999999999997,569.3864757282702 263.9999999999997,569.1250035527269 273.5999999999997,568.7645138367053 283.1999999999997,568.2728639969467 292.7999999999997,567.6095908419976 302.39999999999975,566.7245195942504 311.9999999999998,565.5564013847031 321.59999999999974,564.0316855723729 331.19999999999976,562.0635621022519 340.7999999999998,559.5514360584327 350.39999999999975,556.3810181061604 359.9999999999998,552.4252265506371 369.5999999999998,547.5460948663466 379.1999999999998,541.5978585041454 388.79999999999984,534.4313530162456 398.3999999999998,525.8997898782061 407.99999999999983,515.8658867053551 417.59999999999985,504.21021736913826 427.1999999999998,490.84052036655436 436.79999999999984,475.70156937765483 446.39999999999986,458.7850798187226 455.9999999999999,440.13901305666036 465.5999999999999,419.8755604594404 475.1999999999999,398.17705671570457 484.7999999999999,375.29909761601164 494.3999999999999,351.57022934411646 503.9999999999999,327.38773611494685 513.5999999999999,303.2092756566105 523.1999999999999,279.54038517052385 532.8,256.91818470325296 542.3999999999999,235.8919154354914 551.9999999999999,217.00123896616202 561.5999999999999,200.7534614453458 571.1999999999999,187.60100726676012 580.8,177.92053067729796 590.3999999999999,171.9950083229271 599.9999999999999,170 609.5999999999999,171.99500832292705 619.1999999999999,177.9205306772978 628.8,187.60100726675995 638.3999999999999,200.75346144534558 647.9999999999999,217.00123896616162 657.5999999999998,235.891915435491 667.1999999999999,256.9181847032525 676.7999999999998,279.5403851705234 686.3999999999999,303.20927565661 695.9999999999999,327.3877361149464 705.5999999999999,351.570229344116 715.1999999999999,375.2990976160111 724.8,398.1770567157041 734.3999999999999,419.87556045944007 743.9999999999999,440.13901305666 753.5999999999999,458.78507981872224 763.1999999999999,475.7015693776545 772.8,490.8405203665541 782.4,504.21021736913804 792,515.8658867053549 801.5999999999999,525.8997898782059 811.1999999999999,534.4313530162455 820.8,541.5978585041452 830.4,547.5460948663465 840,552.425226550637 849.6,556.3810181061602 859.2,559.5514360584327 868.8000000000001,562.0635621022519 878.4000000000001,564.0316855723729 888,565.5564013847031 897.6000000000001,566.7245195942504 907.2,567.6095908419976 916.8000000000001,568.2728639969467 926.4000000000001,568.7645138367053 936,569.1250035527269 945.6000000000001,569.3864757282702 955.2,569.5740935053328 964.8000000000001,569.7072790324478 974.4000000000002,569.8008178313987 984,569.865814948839 993.6000000000001,569.9105016825117 1003.1999999999999,569.9409006559072 1012.8000000000001,569.9613626345111 1022.3999999999999,569.97499139849 1032,569.9839738810429 1041.6,569.9898322613935 1051.1999999999998,569.9936132864409 1060.7999999999997,569.9960281982777 1070.3999999999999,569.9975545728134 1079.9999999999995,569.9985093387312" fill="none" stroke="#0A0A0A" stroke-width="2.5" stroke-linecap="round" stroke-linejoin="round"></polyline><line x1="312" y1="170" x2="312" y2="570" stroke="#0A0A0A" stroke-width="1.5" stroke-dasharray="4 4"></line><line x1="888" y1="170" x2="888" y2="570" stroke="#0A0A0A" stroke-width="1.5" stroke-dasharray="4 4"></line><text font-family="Inter, &#39;DM Sans&#39;, system-ui, -apple-system, &#39;Helvetica Neue&#39;, Arial, sans-serif" x="312" y="594" font-size="12" fill="#8A8F98" font-weight="400" text-anchor="middle" dominant-baseline="middle">z = -3</text><text font-family="Inter, &#39;DM Sans&#39;, system-ui, -apple-system, &#39;Helvetica Neue&#39;, Arial, sans-serif" x="888" y="594" font-size="12" fill="#8A8F98" font-weight="400" text-anchor="middle" dominant-baseline="middle">z = +3</text><circle cx="1060.8000000000002" cy="558" r="7" fill="#2D7FF9"></circle><text font-family="Inter, &#39;DM Sans&#39;, system-ui, -apple-system, &#39;Helvetica Neue&#39;, Arial, sans-serif" x="1060.8000000000002" y="534" font-size="12" fill="#2D7FF9" font-weight="700" text-anchor="middle" dominant-baseline="middle">Flagged</text><text font-family="Inter, &#39;DM Sans&#39;, system-ui, -apple-system, &#39;Helvetica Neue&#39;, Arial, sans-serif" x="600" y="620" font-size="13" fill="#0A0A0A" font-weight="600" text-anchor="middle" dominant-baseline="middle">Z-Score</text></svg>