<svg xmlns="http://www.w3.org/2000/svg" viewBox="0 0 1200 700" width="1200" height="700"><defs><marker id="ah" markerWidth="10" markerHeight="10" refX="7.5" refY="4.5" orient="auto"><path d="M0,0.5 L9,4.5 L0,8.5" fill="none" stroke="#0A0A0A" stroke-width="1.6" stroke-linecap="round" stroke-linejoin="round"></path></marker><marker id="ahb" markerWidth="10" markerHeight="10" refX="7.5" refY="4.5" orient="auto"><path d="M0,0.5 L9,4.5 L0,8.5" fill="none" stroke="#2D7FF9" stroke-width="1.6" stroke-linecap="round" stroke-linejoin="round"></path></marker></defs><rect width="1200" height="700" fill="#F4F4F5"></rect><text font-family="Inter, &#39;DM Sans&#39;, system-ui, -apple-system, &#39;Helvetica Neue&#39;, Arial, sans-serif" x="60" y="60" font-size="13" fill="#2D7FF9" font-weight="700" text-anchor="start" dominant-baseline="middle" letter-spacing="1.5">TREND</text><text font-family="Inter, &#39;DM Sans&#39;, system-ui, -apple-system, &#39;Helvetica Neue&#39;, Arial, sans-serif" x="60" y="94" font-size="20" fill="#0A0A0A" font-weight="700" text-anchor="start" dominant-baseline="middle">One-Time Cleanup vs. Ongoing Maintenance</text><line x1="150" y1="170" x2="150" y2="570" stroke="#0A0A0A" stroke-width="1.5"></line><line x1="150" y1="570" x2="1090" y2="570" stroke="#0A0A0A" stroke-width="1.5"></line><line x1="150" y1="470" x2="1090" y2="470" stroke="#E2E8F2" stroke-width="1"></line><line x1="150" y1="370" x2="1090" y2="370" stroke="#E2E8F2" stroke-width="1"></line><line x1="150" y1="270" x2="1090" y2="270" stroke="#E2E8F2" stroke-width="1"></line><line x1="150" y1="170" x2="1090" y2="170" stroke="#E2E8F2" stroke-width="1"></line><text font-family="Inter, &#39;DM Sans&#39;, system-ui, -apple-system, &#39;Helvetica Neue&#39;, Arial, sans-serif" x="135" y="170" font-size="12" fill="#8A8F98" font-weight="400" text-anchor="end" dominant-baseline="middle">100%</text><text font-family="Inter, &#39;DM Sans&#39;, system-ui, -apple-system, &#39;Helvetica Neue&#39;, Arial, sans-serif" x="135" y="570" font-size="12" fill="#8A8F98" font-weight="400" text-anchor="end" dominant-baseline="middle">60%</text><polyline points="150,470 235.45454545454544,220 320.9090909090909,240 406.3636363636363,270 491.8181818181818,300 577.2727272727273,330 662.7272727272726,350 748.1818181818181,370 833.6363636363636,390 919.0909090909091,410 1004.5454545454545,430 1090,450" fill="none" stroke="#0A0A0A" stroke-width="2.5" stroke-dasharray="6 5" stroke-linecap="round" stroke-linejoin="round"></polyline><polyline points="150,290 235.45454545454544,270 320.9090909090909,260 406.3636363636363,250 491.8181818181818,240 577.2727272727273,250 662.7272727272726,260 748.1818181818181,250 833.6363636363636,240 919.0909090909091,250 1004.5454545454545,260 1090,270" fill="none" stroke="#2D7FF9" stroke-width="2.5" stroke-linecap="round" stroke-linejoin="round"></polyline><text font-family="Inter, &#39;DM Sans&#39;, system-ui, -apple-system, &#39;Helvetica Neue&#39;, Arial, sans-serif" x="243.45454545454544" y="206" font-size="12" fill="#8A8F98" font-weight="400" text-anchor="start" dominant-baseline="middle">Cleanup spike</text><text font-family="Inter, &#39;DM Sans&#39;, system-ui, -apple-system, &#39;Helvetica Neue&#39;, Arial, sans-serif" x="1090" y="254" font-size="12" fill="#2D7FF9" font-weight="600" text-anchor="end" dominant-baseline="middle">Steady baseline</text><rect x="820" y="150" width="28" height="3" rx="0" fill="#0A0A0A" stroke="none" stroke-width="1.5"></rect><text font-family="Inter, &#39;DM Sans&#39;, system-ui, -apple-system, &#39;Helvetica Neue&#39;, Arial, sans-serif" x="856" y="153" font-size="12" fill="#0A0A0A" font-weight="400" text-anchor="start" dominant-baseline="middle">One-Time</text><rect x="820" y="168" width="28" height="3" rx="0" fill="#2D7FF9" stroke="none" stroke-width="1.5"></rect><text font-family="Inter, &#39;DM Sans&#39;, system-ui, -apple-system, &#39;Helvetica Neue&#39;, Arial, sans-serif" x="856" y="171" font-size="12" fill="#0A0A0A" font-weight="400" text-anchor="start" dominant-baseline="middle">Ongoing</text></svg>