<svg xmlns="http://www.w3.org/2000/svg" viewBox="0 0 1200 700" width="1200" height="700"><defs><marker id="ah" markerWidth="10" markerHeight="10" refX="7.5" refY="4.5" orient="auto"><path d="M0,0.5 L9,4.5 L0,8.5" fill="none" stroke="#0A0A0A" stroke-width="1.6" stroke-linecap="round" stroke-linejoin="round"></path></marker><marker id="ahb" markerWidth="10" markerHeight="10" refX="7.5" refY="4.5" orient="auto"><path d="M0,0.5 L9,4.5 L0,8.5" fill="none" stroke="#2D7FF9" stroke-width="1.6" stroke-linecap="round" stroke-linejoin="round"></path></marker></defs><rect width="1200" height="700" fill="#F4F4F5"></rect><text font-family="Inter, &#39;DM Sans&#39;, system-ui, -apple-system, &#39;Helvetica Neue&#39;, Arial, sans-serif" x="60" y="60" font-size="13" fill="#2D7FF9" font-weight="700" text-anchor="start" dominant-baseline="middle" letter-spacing="1.5">TREND</text><text font-family="Inter, &#39;DM Sans&#39;, system-ui, -apple-system, &#39;Helvetica Neue&#39;, Arial, sans-serif" x="60" y="94" font-size="20" fill="#0A0A0A" font-weight="700" text-anchor="start" dominant-baseline="middle">Data Quality Score Declining Over 18 Months</text><line x1="150" y1="160" x2="150" y2="580" stroke="#0A0A0A" stroke-width="1.5"></line><line x1="150" y1="580" x2="1090" y2="580" stroke="#0A0A0A" stroke-width="1.5"></line><line x1="150" y1="496" x2="1090" y2="496" stroke="#E2E8F2" stroke-width="1"></line><line x1="150" y1="412" x2="1090" y2="412" stroke="#E2E8F2" stroke-width="1"></line><line x1="150" y1="328" x2="1090" y2="328" stroke="#E2E8F2" stroke-width="1"></line><line x1="150" y1="244" x2="1090" y2="244" stroke="#E2E8F2" stroke-width="1"></line><line x1="150" y1="160" x2="1090" y2="160" stroke="#E2E8F2" stroke-width="1"></line><text font-family="Inter, &#39;DM Sans&#39;, system-ui, -apple-system, &#39;Helvetica Neue&#39;, Arial, sans-serif" x="135" y="160" font-size="12" fill="#8A8F98" font-weight="400" text-anchor="end" dominant-baseline="middle">100%</text><text font-family="Inter, &#39;DM Sans&#39;, system-ui, -apple-system, &#39;Helvetica Neue&#39;, Arial, sans-serif" x="135" y="580" font-size="12" fill="#8A8F98" font-weight="400" text-anchor="end" dominant-baseline="middle">75%</text><polyline points="150,193.59999999999997 205.29411764705884,210.39999999999998 260.5882352941177,227.2 315.88235294117646,227.2 371.1764705882353,260.8 426.47058823529414,277.6 481.764705882353,294.4 537.0588235294117,328 592.3529411764706,328 647.6470588235294,344.79999999999995 702.9411764705883,361.6 758.2352941176471,378.4 813.529411764706,395.2 868.8235294117646,412 924.1176470588235,412 979.4117647058823,428.8 1034.7058823529412,445.6 1090,445.6" fill="none" stroke="#0A0A0A" stroke-width="2.5" stroke-linecap="round" stroke-linejoin="round"></polyline><circle cx="315.88235294117646" cy="227.2" r="5" fill="#2D7FF9"></circle><line x1="315.88235294117646" y1="227.2" x2="315.88235294117646" y2="181.2" stroke="#2D7FF9" stroke-width="1.5" stroke-dasharray="3 3"></line><text font-family="Inter, &#39;DM Sans&#39;, system-ui, -apple-system, &#39;Helvetica Neue&#39;, Arial, sans-serif" x="315.88235294117646" y="169.2" font-size="12" fill="#2D7FF9" font-weight="600" text-anchor="middle" dominant-baseline="middle">Import Event</text><circle cx="592.3529411764706" cy="328" r="5" fill="#2D7FF9"></circle><line x1="592.3529411764706" y1="328" x2="592.3529411764706" y2="282" stroke="#2D7FF9" stroke-width="1.5" stroke-dasharray="3 3"></line><text font-family="Inter, &#39;DM Sans&#39;, system-ui, -apple-system, &#39;Helvetica Neue&#39;, Arial, sans-serif" x="592.3529411764706" y="270" font-size="12" fill="#2D7FF9" font-weight="600" text-anchor="middle" dominant-baseline="middle">System Change</text><circle cx="924.1176470588235" cy="412" r="5" fill="#2D7FF9"></circle><line x1="924.1176470588235" y1="412" x2="924.1176470588235" y2="366" stroke="#2D7FF9" stroke-width="1.5" stroke-dasharray="3 3"></line><text font-family="Inter, &#39;DM Sans&#39;, system-ui, -apple-system, &#39;Helvetica Neue&#39;, Arial, sans-serif" x="924.1176470588235" y="354" font-size="12" fill="#2D7FF9" font-weight="600" text-anchor="middle" dominant-baseline="middle">Drift</text><text font-family="Inter, &#39;DM Sans&#39;, system-ui, -apple-system, &#39;Helvetica Neue&#39;, Arial, sans-serif" x="150" y="608" font-size="12" fill="#8A8F98" font-weight="400" text-anchor="start" dominant-baseline="middle">Month 1</text><text font-family="Inter, &#39;DM Sans&#39;, system-ui, -apple-system, &#39;Helvetica Neue&#39;, Arial, sans-serif" x="1090" y="608" font-size="12" fill="#8A8F98" font-weight="400" text-anchor="end" dominant-baseline="middle">Month 18</text></svg>