<svg xmlns="http://www.w3.org/2000/svg" viewBox="0 0 800 800" width="800" height="800"><defs><marker id="ah" markerWidth="10" markerHeight="10" refX="7.5" refY="4.5" orient="auto"><path d="M0,0.5 L9,4.5 L0,8.5" fill="none" stroke="#0A0A0A" stroke-width="1.6" stroke-linecap="round" stroke-linejoin="round"></path></marker><marker id="ahb" markerWidth="10" markerHeight="10" refX="7.5" refY="4.5" orient="auto"><path d="M0,0.5 L9,4.5 L0,8.5" fill="none" stroke="#2D7FF9" stroke-width="1.6" stroke-linecap="round" stroke-linejoin="round"></path></marker></defs><rect width="800" height="800" fill="#F4F4F5"></rect><text font-family="Inter, &#39;DM Sans&#39;, system-ui, -apple-system, &#39;Helvetica Neue&#39;, Arial, sans-serif" x="54" y="64" font-size="13" fill="#2D7FF9" font-weight="700" text-anchor="start" dominant-baseline="middle" letter-spacing="1.5">DATA QUALITY</text><text font-family="Inter, &#39;DM Sans&#39;, system-ui, -apple-system, &#39;Helvetica Neue&#39;, Arial, sans-serif" x="54" y="98" font-size="20" fill="#0A0A0A" font-weight="700" text-anchor="start" dominant-baseline="middle">Mixed Date Formats in One Column</text><rect x="120" y="160" width="560" height="52" rx="8" fill="#0A0A0A" stroke="none" stroke-width="1.5"></rect><text font-family="&#39;JetBrains Mono&#39;, &#39;SF Mono&#39;, ui-monospace, Menlo, monospace" x="148" y="186" font-size="15" fill="#FFFFFF" font-weight="700" text-anchor="start" dominant-baseline="middle">date_of_birth</text><rect x="120" y="212" width="560" height="76" rx="8" fill="#FFFFFF" stroke="#E2E8F2" stroke-width="1.5"></rect><text font-family="&#39;JetBrains Mono&#39;, &#39;SF Mono&#39;, ui-monospace, Menlo, monospace" x="148" y="250" font-size="18" fill="#0A0A0A" font-weight="400" text-anchor="start" dominant-baseline="middle">2024-01-15</text><rect x="120" y="296" width="560" height="76" rx="8" fill="#F4F4F5" stroke="#E2E8F2" stroke-width="1.5"></rect><rect x="120" y="296" width="4" height="76" rx="0" fill="#2D7FF9" stroke="none" stroke-width="1.5"></rect><text font-family="&#39;JetBrains Mono&#39;, &#39;SF Mono&#39;, ui-monospace, Menlo, monospace" x="148" y="334" font-size="18" fill="#2D7FF9" font-weight="400" text-anchor="start" dominant-baseline="middle">01/15/2024</text><g fill="none" stroke="#2D7FF9" stroke-width="1.6" stroke-linecap="round" stroke-linejoin="round"><line x1="624.5" y1="326.3" x2="624.5" y2="342.8"></line><path d="M624.5,327.4 h10.45 l-2.75,3.8499999999999996 l2.75,3.8499999999999996 h-10.45 Z" fill="#2D7FF9"></path></g><rect x="120" y="380" width="560" height="76" rx="8" fill="#FFFFFF" stroke="#E2E8F2" stroke-width="1.5"></rect><rect x="120" y="380" width="4" height="76" rx="0" fill="#2D7FF9" stroke="none" stroke-width="1.5"></rect><text font-family="&#39;JetBrains Mono&#39;, &#39;SF Mono&#39;, ui-monospace, Menlo, monospace" x="148" y="418" font-size="18" fill="#2D7FF9" font-weight="400" text-anchor="start" dominant-baseline="middle">15-Jan-2024</text><g fill="none" stroke="#2D7FF9" stroke-width="1.6" stroke-linecap="round" stroke-linejoin="round"><line x1="624.5" y1="410.3" x2="624.5" y2="426.8"></line><path d="M624.5,411.4 h10.45 l-2.75,3.8499999999999996 l2.75,3.8499999999999996 h-10.45 Z" fill="#2D7FF9"></path></g><rect x="120" y="464" width="560" height="76" rx="8" fill="#F4F4F5" stroke="#E2E8F2" stroke-width="1.5"></rect><rect x="120" y="464" width="4" height="76" rx="0" fill="#2D7FF9" stroke="none" stroke-width="1.5"></rect><text font-family="&#39;JetBrains Mono&#39;, &#39;SF Mono&#39;, ui-monospace, Menlo, monospace" x="148" y="502" font-size="18" fill="#2D7FF9" font-weight="400" text-anchor="start" dominant-baseline="middle">Jan 15 2024</text><g fill="none" stroke="#2D7FF9" stroke-width="1.6" stroke-linecap="round" stroke-linejoin="round"><line x1="624.5" y1="494.3" x2="624.5" y2="510.8"></line><path d="M624.5,495.4 h10.45 l-2.75,3.8499999999999996 l2.75,3.8499999999999996 h-10.45 Z" fill="#2D7FF9"></path></g><rect x="120" y="548" width="560" height="76" rx="8" fill="#FFFFFF" stroke="#E2E8F2" stroke-width="1.5"></rect><rect x="120" y="548" width="4" height="76" rx="0" fill="#2D7FF9" stroke="none" stroke-width="1.5"></rect><text font-family="&#39;JetBrains Mono&#39;, &#39;SF Mono&#39;, ui-monospace, Menlo, monospace" x="148" y="586" font-size="18" fill="#2D7FF9" font-weight="400" text-anchor="start" dominant-baseline="middle">20240115</text><g fill="none" stroke="#2D7FF9" stroke-width="1.6" stroke-linecap="round" stroke-linejoin="round"><line x1="624.5" y1="578.3" x2="624.5" y2="594.8"></line><path d="M624.5,579.4 h10.45 l-2.75,3.8499999999999996 l2.75,3.8499999999999996 h-10.45 Z" fill="#2D7FF9"></path></g><rect x="120" y="632" width="560" height="76" rx="8" fill="#F4F4F5" stroke="#E2E8F2" stroke-width="1.5"></rect><rect x="120" y="632" width="4" height="76" rx="0" fill="#2D7FF9" stroke="none" stroke-width="1.5"></rect><text font-family="&#39;JetBrains Mono&#39;, &#39;SF Mono&#39;, ui-monospace, Menlo, monospace" x="148" y="670" font-size="18" fill="#2D7FF9" font-weight="400" text-anchor="start" dominant-baseline="middle">15.01.2024</text><g fill="none" stroke="#2D7FF9" stroke-width="1.6" stroke-linecap="round" stroke-linejoin="round"><line x1="624.5" y1="662.3" x2="624.5" y2="678.8"></line><path d="M624.5,663.4 h10.45 l-2.75,3.8499999999999996 l2.75,3.8499999999999996 h-10.45 Z" fill="#2D7FF9"></path></g><rect x="120" y="160" width="560" height="548" rx="8" fill="none" stroke="#0A0A0A" stroke-width="1.5"></rect></svg>