<svg xmlns="http://www.w3.org/2000/svg" viewBox="0 0 1200 700" width="1200" height="700"><defs><marker id="ah" markerWidth="10" markerHeight="10" refX="7.5" refY="4.5" orient="auto"><path d="M0,0.5 L9,4.5 L0,8.5" fill="none" stroke="#0A0A0A" stroke-width="1.6" stroke-linecap="round" stroke-linejoin="round"></path></marker><marker id="ahb" markerWidth="10" markerHeight="10" refX="7.5" refY="4.5" orient="auto"><path d="M0,0.5 L9,4.5 L0,8.5" fill="none" stroke="#2D7FF9" stroke-width="1.6" stroke-linecap="round" stroke-linejoin="round"></path></marker></defs><rect width="1200" height="700" fill="#F4F4F5"></rect><text font-family="Inter, &#39;DM Sans&#39;, system-ui, -apple-system, &#39;Helvetica Neue&#39;, Arial, sans-serif" x="60" y="60" font-size="13" fill="#2D7FF9" font-weight="700" text-anchor="start" dominant-baseline="middle" letter-spacing="1.5">METRICS</text><text font-family="Inter, &#39;DM Sans&#39;, system-ui, -apple-system, &#39;Helvetica Neue&#39;, Arial, sans-serif" x="60" y="94" font-size="20" fill="#0A0A0A" font-weight="700" text-anchor="start" dominant-baseline="middle">Three DQ Metrics Over 12 Months</text><line x1="150" y1="170" x2="150" y2="570" stroke="#0A0A0A" stroke-width="1.5"></line><line x1="150" y1="570" x2="1030" y2="570" stroke="#0A0A0A" stroke-width="1.5"></line><line x1="150" y1="470" x2="1030" y2="470" stroke="#E2E8F2" stroke-width="1"></line><line x1="150" y1="370" x2="1030" y2="370" stroke="#E2E8F2" stroke-width="1"></line><line x1="150" y1="270" x2="1030" y2="270" stroke="#E2E8F2" stroke-width="1"></line><line x1="150" y1="170" x2="1030" y2="170" stroke="#E2E8F2" stroke-width="1"></line><polyline points="150,250 230,250 310,266 390,266 470,282 550,282 630,298 710,314 790,362 870,410 950,458 1030,490" fill="none" stroke="#0A0A0A" stroke-width="2.5" stroke-linecap="round" stroke-linejoin="round"></polyline><polyline points="150,330 230,314 310,330 390,298 470,314 550,330 630,202 710,282 790,298 870,314 950,330 1030,314" fill="none" stroke="#2D7FF9" stroke-width="2.5" stroke-linecap="round" stroke-linejoin="round"></polyline><polyline points="150,362 230,378 310,362 390,394 470,378 550,362 630,378 710,394 790,378 870,394 950,410 1030,394" fill="none" stroke="#0A0A0A" stroke-width="2" stroke-dasharray="5 4" stroke-linecap="round" stroke-linejoin="round"></polyline><text font-family="Inter, &#39;DM Sans&#39;, system-ui, -apple-system, &#39;Helvetica Neue&#39;, Arial, sans-serif" x="1042" y="490" font-size="12" fill="#0A0A0A" font-weight="600" text-anchor="start" dominant-baseline="middle">Completeness</text><text font-family="Inter, &#39;DM Sans&#39;, system-ui, -apple-system, &#39;Helvetica Neue&#39;, Arial, sans-serif" x="1042" y="314" font-size="12" fill="#2D7FF9" font-weight="600" text-anchor="start" dominant-baseline="middle">Uniqueness</text><text font-family="Inter, &#39;DM Sans&#39;, system-ui, -apple-system, &#39;Helvetica Neue&#39;, Arial, sans-serif" x="1042" y="394" font-size="12" fill="#8A8F98" font-weight="600" text-anchor="start" dominant-baseline="middle">Validity</text></svg>