<svg xmlns="http://www.w3.org/2000/svg" viewBox="0 0 1200 700" width="1200" height="700"><defs><marker id="ah" markerWidth="10" markerHeight="10" refX="7.5" refY="4.5" orient="auto"><path d="M0,0.5 L9,4.5 L0,8.5" fill="none" stroke="#0A0A0A" stroke-width="1.6" stroke-linecap="round" stroke-linejoin="round"></path></marker><marker id="ahb" markerWidth="10" markerHeight="10" refX="7.5" refY="4.5" orient="auto"><path d="M0,0.5 L9,4.5 L0,8.5" fill="none" stroke="#2D7FF9" stroke-width="1.6" stroke-linecap="round" stroke-linejoin="round"></path></marker></defs><rect width="1200" height="700" fill="#F4F4F5"></rect><text font-family="Inter, &#39;DM Sans&#39;, system-ui, -apple-system, &#39;Helvetica Neue&#39;, Arial, sans-serif" x="60" y="60" font-size="13" fill="#2D7FF9" font-weight="700" text-anchor="start" dominant-baseline="middle" letter-spacing="1.5">DISTRIBUTION</text><text font-family="Inter, &#39;DM Sans&#39;, system-ui, -apple-system, &#39;Helvetica Neue&#39;, Arial, sans-serif" x="60" y="94" font-size="20" fill="#0A0A0A" font-weight="700" text-anchor="start" dominant-baseline="middle">Order Status: Run 1 vs. Run 2</text><line x1="150" y1="160" x2="150" y2="580" stroke="#0A0A0A" stroke-width="1.5"></line><line x1="150" y1="580" x2="1090" y2="580" stroke="#0A0A0A" stroke-width="1.5"></line><line x1="150" y1="496" x2="1090" y2="496" stroke="#E2E8F2" stroke-width="1"></line><line x1="150" y1="412" x2="1090" y2="412" stroke="#E2E8F2" stroke-width="1"></line><line x1="150" y1="328" x2="1090" y2="328" stroke="#E2E8F2" stroke-width="1"></line><line x1="150" y1="244" x2="1090" y2="244" stroke="#E2E8F2" stroke-width="1"></line><line x1="150" y1="160" x2="1090" y2="160" stroke="#E2E8F2" stroke-width="1"></line><rect x="203.5" y="300" width="58" height="280" rx="3" fill="#0A0A0A" stroke="none" stroke-width="1.5"></rect><rect x="273.5" y="346.66666666666663" width="58" height="233.33333333333334" rx="3" fill="#2D7FF9" stroke="none" stroke-width="1.5"></rect><text font-family="Inter, &#39;DM Sans&#39;, system-ui, -apple-system, &#39;Helvetica Neue&#39;, Arial, sans-serif" x="267.5" y="604" font-size="12" fill="#0A0A0A" font-weight="400" text-anchor="middle" dominant-baseline="middle">pending</text><rect x="438.5" y="318.6666666666667" width="58" height="261.3333333333333" rx="3" fill="#0A0A0A" stroke="none" stroke-width="1.5"></rect><rect x="508.5" y="356" width="58" height="224" rx="3" fill="#2D7FF9" stroke="none" stroke-width="1.5"></rect><text font-family="Inter, &#39;DM Sans&#39;, system-ui, -apple-system, &#39;Helvetica Neue&#39;, Arial, sans-serif" x="502.5" y="604" font-size="12" fill="#0A0A0A" font-weight="400" text-anchor="middle" dominant-baseline="middle">shipped</text><rect x="673.5" y="206.66666666666669" width="58" height="373.3333333333333" rx="3" fill="#0A0A0A" stroke="none" stroke-width="1.5"></rect><rect x="743.5" y="309.3333333333333" width="58" height="270.6666666666667" rx="3" fill="#2D7FF9" stroke="none" stroke-width="1.5"></rect><text font-family="Inter, &#39;DM Sans&#39;, system-ui, -apple-system, &#39;Helvetica Neue&#39;, Arial, sans-serif" x="737.5" y="604" font-size="12" fill="#0A0A0A" font-weight="400" text-anchor="middle" dominant-baseline="middle">delivered</text><rect x="908.5" y="561.3333333333334" width="58" height="18.666666666666668" rx="3" fill="#0A0A0A" stroke="none" stroke-width="1.5"></rect><rect x="978.5" y="374.6666666666667" width="58" height="205.33333333333331" rx="3" fill="#2D7FF9" stroke="none" stroke-width="1.5"></rect><text font-family="Inter, &#39;DM Sans&#39;, system-ui, -apple-system, &#39;Helvetica Neue&#39;, Arial, sans-serif" x="972.5" y="604" font-size="12" fill="#0A0A0A" font-weight="400" text-anchor="middle" dominant-baseline="middle">cancelled_fraud</text><g fill="none" stroke="#2D7FF9" stroke-width="1.6" stroke-linecap="round" stroke-linejoin="round"><line x1="1002.5" y1="345.6666666666667" x2="1002.5" y2="360.6666666666667"></line><path d="M1002.5,346.6666666666667 h9.5 l-2.5,3.5 l2.5,3.5 h-9.5 Z" fill="#2D7FF9"></path></g><rect x="820" y="150" width="14" height="14" rx="3" fill="#0A0A0A" stroke="none" stroke-width="1.5"></rect><text font-family="Inter, &#39;DM Sans&#39;, system-ui, -apple-system, &#39;Helvetica Neue&#39;, Arial, sans-serif" x="842" y="158" font-size="12" fill="#0A0A0A" font-weight="400" text-anchor="start" dominant-baseline="middle">Run 1</text><rect x="910" y="150" width="14" height="14" rx="3" fill="#2D7FF9" stroke="none" stroke-width="1.5"></rect><text font-family="Inter, &#39;DM Sans&#39;, system-ui, -apple-system, &#39;Helvetica Neue&#39;, Arial, sans-serif" x="932" y="158" font-size="12" fill="#0A0A0A" font-weight="400" text-anchor="start" dominant-baseline="middle">Run 2</text></svg>