<svg xmlns="http://www.w3.org/2000/svg" viewBox="0 0 800 700" width="800" height="700"><defs><marker id="ah" markerWidth="10" markerHeight="10" refX="7.5" refY="4.5" orient="auto"><path d="M0,0.5 L9,4.5 L0,8.5" fill="none" stroke="#0A0A0A" stroke-width="1.6" stroke-linecap="round" stroke-linejoin="round"></path></marker><marker id="ahb" markerWidth="10" markerHeight="10" refX="7.5" refY="4.5" orient="auto"><path d="M0,0.5 L9,4.5 L0,8.5" fill="none" stroke="#2D7FF9" stroke-width="1.6" stroke-linecap="round" stroke-linejoin="round"></path></marker></defs><rect width="800" height="700" fill="#F4F4F5"></rect><text font-family="Inter, &#39;DM Sans&#39;, system-ui, -apple-system, &#39;Helvetica Neue&#39;, Arial, sans-serif" x="54" y="64" font-size="13" fill="#2D7FF9" font-weight="700" text-anchor="start" dominant-baseline="middle" letter-spacing="1.5">VALIDATION</text><text font-family="Inter, &#39;DM Sans&#39;, system-ui, -apple-system, &#39;Helvetica Neue&#39;, Arial, sans-serif" x="54" y="98" font-size="20" fill="#0A0A0A" font-weight="700" text-anchor="start" dominant-baseline="middle">Order ID Format</text><rect x="120" y="160" width="560" height="56" rx="8" fill="#0A0A0A" stroke="none" stroke-width="1.5"></rect><text font-family="&#39;JetBrains Mono&#39;, &#39;SF Mono&#39;, ui-monospace, Menlo, monospace" x="148" y="188" font-size="15" fill="#FFFFFF" font-weight="700" text-anchor="start" dominant-baseline="middle">order_id</text><text font-family="&#39;JetBrains Mono&#39;, &#39;SF Mono&#39;, ui-monospace, Menlo, monospace" x="660" y="188" font-size="13" fill="#cfd6e4" font-weight="400" text-anchor="end" dominant-baseline="middle">Rule: INV-NNNNN</text><rect x="120" y="216" width="560" height="80" rx="8" fill="#FFFFFF" stroke="#E2E8F2" stroke-width="1.5"></rect><text font-family="&#39;JetBrains Mono&#39;, &#39;SF Mono&#39;, ui-monospace, Menlo, monospace" x="148" y="256" font-size="20" fill="#0A0A0A" font-weight="400" text-anchor="start" dominant-baseline="middle">INV-12345</text><path d="M621.84,256.48 l5.28,5.76 l11.040000000000001,-12.48" fill="none" stroke="#00C9A7" stroke-width="3.84" stroke-linecap="round" stroke-linejoin="round"></path><rect x="120" y="304" width="560" height="80" rx="8" fill="#F4F4F5" stroke="#E2E8F2" stroke-width="1.5"></rect><text font-family="&#39;JetBrains Mono&#39;, &#39;SF Mono&#39;, ui-monospace, Menlo, monospace" x="148" y="344" font-size="20" fill="#0A0A0A" font-weight="400" text-anchor="start" dominant-baseline="middle">INV-67890</text><path d="M621.84,344.48 l5.28,5.76 l11.040000000000001,-12.48" fill="none" stroke="#00C9A7" stroke-width="3.84" stroke-linecap="round" stroke-linejoin="round"></path><rect x="120" y="392" width="560" height="80" rx="8" fill="#FFFFFF" stroke="#E2E8F2" stroke-width="1.5"></rect><text font-family="&#39;JetBrains Mono&#39;, &#39;SF Mono&#39;, ui-monospace, Menlo, monospace" x="148" y="432" font-size="20" fill="#0A0A0A" font-weight="400" text-anchor="start" dominant-baseline="middle">inv12345</text><g fill="none" stroke="#2D7FF9" stroke-width="1.6" stroke-linecap="round" stroke-linejoin="round"><path d="M630,422.4 L640.2,440.4 H619.8 Z"></path><line x1="630" y1="430.2" x2="630" y2="435"></line><circle cx="630" cy="438" r="0.8" fill="#2D7FF9" stroke="none"></circle></g><rect x="120" y="480" width="560" height="80" rx="8" fill="#F4F4F5" stroke="#E2E8F2" stroke-width="1.5"></rect><text font-family="&#39;JetBrains Mono&#39;, &#39;SF Mono&#39;, ui-monospace, Menlo, monospace" x="148" y="520" font-size="20" fill="#0A0A0A" font-weight="400" text-anchor="start" dominant-baseline="middle">INV12345</text><g fill="none" stroke="#2D7FF9" stroke-width="1.6" stroke-linecap="round" stroke-linejoin="round"><path d="M630,510.4 L640.2,528.4 H619.8 Z"></path><line x1="630" y1="518.2" x2="630" y2="523"></line><circle cx="630" cy="526" r="0.8" fill="#2D7FF9" stroke="none"></circle></g><rect x="120" y="568" width="560" height="80" rx="8" fill="#FFFFFF" stroke="#E2E8F2" stroke-width="1.5"></rect><text font-family="&#39;JetBrains Mono&#39;, &#39;SF Mono&#39;, ui-monospace, Menlo, monospace" x="148" y="608" font-size="20" fill="#0A0A0A" font-weight="400" text-anchor="start" dominant-baseline="middle">inv-ABCDE</text><g fill="none" stroke="#2D7FF9" stroke-width="1.6" stroke-linecap="round" stroke-linejoin="round"><path d="M630,598.4 L640.2,616.4 H619.8 Z"></path><line x1="630" y1="606.2" x2="630" y2="611"></line><circle cx="630" cy="614" r="0.8" fill="#2D7FF9" stroke="none"></circle></g><rect x="120" y="160" width="560" height="496" rx="8" fill="none" stroke="#0A0A0A" stroke-width="1.5"></rect></svg>