<?xml version="1.0" encoding="utf-8"?>
<!-- Generator: Adobe Illustrator 24.0.1, SVG Export Plug-In . SVG Version: 6.00 Build 0)  -->
<svg version="1.1" id="Layer_1" xmlns="http://www.w3.org/2000/svg" xmlns:xlink="http://www.w3.org/1999/xlink" x="0px" y="0px"
	 viewBox="0 0 312.6 78" style="enable-background:new 0 0 312.6 78;" xml:space="preserve">
<g>
	<path d="M30,50.7c-1.7-1.3-3.5-2.3-5.5-3.2c-1.9-0.8-3.7-1.6-5.4-2.3c-1.6-0.7-2.9-1.5-4-2.3c-1-0.8-1.5-1.7-1.5-2.8
		c0-1.2,0.6-2.3,1.7-3.2c1.2-0.9,3-1.4,5.4-1.4c1.4,0,2.9,0.2,4.4,0.5s3.2,1,4.9,2.1l0.5,0.3l3.3-8.8l-0.3-0.2
		c-2-1.6-4.3-2.7-6.7-3.3c-2.4-0.7-4.7-1-6.8-1s-4.2,0.3-6.3,0.9s-4.1,1.5-5.9,2.8s-3.2,2.9-4.3,4.8c-1.1,2-1.7,4.4-1.7,7.1
		c0,2.7,0.6,5.1,1.7,6.9c1.1,1.8,2.5,3.3,4.2,4.5s3.5,2.2,5.3,3c1.9,0.8,3.6,1.6,5.2,2.3s2.9,1.6,3.9,2.4c1,0.8,1.4,1.8,1.4,3.1
		c0,1.4-0.6,2.5-1.8,3.4c-1.3,1-3.2,1.4-5.6,1.4c-1.5,0-3.2-0.3-5-0.8c-1.8-0.5-3.5-1.4-5.3-2.8l-0.2-0.4L0,72.1l0.4,0.3
		c2.4,2,5.2,3.5,8.4,4.3c3.1,0.8,6.2,1.3,9.1,1.3c2.5,0,4.8-0.3,7-0.9s4.1-1.5,5.8-2.7c1.7-1.2,3-2.8,3.9-4.7
		c0.9-1.9,1.4-4.2,1.4-6.8c0-3-0.6-5.4-1.7-7.4C33.1,53.6,31.7,52,30,50.7z"/>
	<polygon points="257.9,52.7 244.4,24.9 229.5,24.9 257.9,78 286.4,24.9 271.4,24.9 	"/>
	<path d="M136.4,24.4c-3.4,0-6.7,0.6-9.9,1.8l-1.3,0.5V0h-14.7v78h14.7V48c0-5.7,5-10.3,11.2-10.3s11.2,4.6,11.2,10.3v29.9h14.7V48
		C162.3,35,150.7,24.4,136.4,24.4z"/>
	<path d="M72.6,24.9c-10.7,0-20.4,6.5-24.5,16.4s-1.8,21.3,5.8,28.9s19,9.9,28.9,5.8s16.4-13.8,16.4-24.5
		C99.2,36.8,87.3,24.9,72.6,24.9z M72.6,63.4c-4.8,0-9.2-2.9-11.1-7.4s-0.8-9.6,2.6-13c3.4-3.4,8.6-4.4,13-2.6
		c4.5,1.9,7.4,6.2,7.4,11C84.6,58,79.2,63.4,72.6,63.4z"/>
	<path d="M198.7,24.9c-10.7,0-20.4,6.5-24.5,16.4s-1.8,21.3,5.8,28.9s19,9.9,28.9,5.8s16.4-13.8,16.4-24.5
		C225.2,36.8,213.4,24.9,198.7,24.9z M198.7,63.4c-4.8,0-9.2-2.9-11.1-7.4c-1.9-4.5-0.8-9.6,2.6-13c3.4-3.4,8.6-4.4,13-2.6
		c4.5,1.9,7.4,6.2,7.4,11C210.7,58,205.3,63.4,198.7,63.4z"/>
	<rect x="297.9" y="24.9" width="14.7" height="53.1"/>
	<path d="M305.2,14.7c2.2,0,4-0.7,5.3-2.1c1.4-1.4,2.1-3.2,2.1-5.3c0-2-0.7-3.7-2.1-5.2c-1.4-1.4-3.2-2.1-5.3-2.1
		c-2.1,0-3.8,0.7-5.2,2.1c-1.4,1.4-2.1,3.1-2.1,5.2c0,2.2,0.7,4,2.1,5.3C301.3,14,303.1,14.7,305.2,14.7z"/>
</g>
</svg>
