<?xml version="1.0" encoding="utf-8"?>
<!-- Generator: Adobe Illustrator 24.0.1, SVG Export Plug-In . SVG Version: 6.00 Build 0)  -->
<svg version="1.1" id="Layer_1" xmlns="http://www.w3.org/2000/svg" xmlns:xlink="http://www.w3.org/1999/xlink" x="0px" y="0px"
	 viewBox="0 0 312.6 78" style="enable-background:new 0 0 312.6 78;" xml:space="preserve">
<path d="M36.8,61.9c0,2.6-0.5,4.9-1.4,6.9c-0.9,2-2.3,3.6-4,4.8c-1.8,1.2-3.7,2.1-5.9,2.7c-2.2,0.6-4.6,0.9-7.1,0.9
	c-2.7,0-5.8-0.5-9.2-1.3c-3.1-0.8-6-2.2-8.5-4.4L0,71.2l5.8-8.8l0.7,0.5l0.2,0.2c1.7,1.3,3.2,2.1,4.9,2.5c1.9,0.5,3.5,0.8,4.9,0.8
	c2.5,0,4.2-0.4,5.4-1.3c1.2-0.8,1.7-1.8,1.7-3.1c0-1.3-0.4-2.1-1.3-2.9c-1.3-1-2.5-1.8-3.8-2.3c-0.6-0.3-1.2-0.5-1.9-0.8
	c-1-0.5-2.2-1-3.3-1.5c-1.9-0.9-3.7-1.9-5.4-3c-1.7-1.2-3.2-2.8-4.3-4.6c-1.1-1.9-1.7-4.3-1.7-7.1c0-2.7,0.6-5.2,1.7-7.3
	c1.2-2,2.6-3.6,4.4-4.9c1.7-1.2,3.7-2.2,6-2.8c4.4-1.3,8.8-1.2,13.3,0.1c2.5,0.6,4.8,1.8,6.8,3.4l0.5,0.3l-3.5,9.4l-0.8-0.5
	c-1.6-1-3.3-1.8-4.8-2.1c-1.7-0.3-3.1-0.5-4.3-0.5c-2.3,0-4,0.4-5.2,1.3c-1,0.8-1.6,1.9-1.6,2.9c0,1,0.4,1.8,1.4,2.6
	c1.2,0.9,2.5,1.6,3.9,2.2c1,0.4,2,0.8,3,1.3c0.8,0.3,1.6,0.7,2.4,1c2.2,1,4,2,5.6,3.2c1.7,1.3,3.1,2.9,4.4,4.9
	C36.2,56.5,36.8,58.9,36.8,61.9z"/>
<polygon points="257.9,52 244.4,24.2 229.5,24.2 257.9,77.3 286.4,24.2 271.4,24.2 "/>
<path d="M162.2,47.4v29.8h-14.5V47.4c0-5.7-5.1-10.4-11.3-10.4c-6.2,0-11.3,4.7-11.3,10.4v29.9h-14.5V0h14.5v26.3l1.4-0.6
	c3.2-1.2,6.5-1.8,9.9-1.8C150.6,23.9,162.2,34.5,162.2,47.4z"/>
<path d="M72.6,24.2c-10.7,0-20.4,6.5-24.5,16.4s-1.8,21.3,5.8,28.9s19,9.9,28.9,5.8s16.4-13.8,16.4-24.5
	C99.2,36.1,87.3,24.2,72.6,24.2z M72.6,62.7c-4.8,0-9.2-2.9-11.1-7.4s-0.8-9.6,2.6-13c3.4-3.4,8.6-4.4,13-2.6
	c4.5,1.9,7.4,6.2,7.4,11C84.6,57.3,79.2,62.7,72.6,62.7z"/>
<path d="M198.7,24.2c-10.7,0-20.4,6.5-24.5,16.4s-1.8,21.3,5.8,28.9s19,9.9,28.9,5.8s16.4-13.8,16.4-24.5
	C225.2,36.1,213.4,24.2,198.7,24.2z M198.7,62.7c-4.8,0-9.2-2.9-11.1-7.4c-1.9-4.5-0.8-9.6,2.6-13c3.4-3.4,8.6-4.4,13-2.6
	c4.5,1.9,7.4,6.2,7.4,11C210.7,57.3,205.3,62.7,198.7,62.7z"/>
<rect x="297.9" y="24.2" width="14.7" height="53.1"/>
<path d="M305.2,14.7c2.2,0,4-0.7,5.3-2.1c1.4-1.4,2.1-3.2,2.1-5.3c0-2-0.7-3.7-2.1-5.2c-1.4-1.4-3.2-2.1-5.3-2.1
	c-2.1,0-3.8,0.7-5.2,2.1c-1.4,1.4-2.1,3.1-2.1,5.2c0,2.2,0.7,4,2.1,5.3C301.3,14,303.1,14.7,305.2,14.7z"/>
</svg>
