<svg xmlns="http://www.w3.org/2000/svg" viewBox="0 0 1280 720" width="1280" height="720"><defs><marker id="ah" markerWidth="10" markerHeight="10" refX="7.5" refY="4.5" orient="auto"><path d="M0,0.5 L9,4.5 L0,8.5" fill="none" stroke="#0A0A0A" stroke-width="1.6" stroke-linecap="round" stroke-linejoin="round"></path></marker><marker id="ahb" markerWidth="10" markerHeight="10" refX="7.5" refY="4.5" orient="auto"><path d="M0,0.5 L9,4.5 L0,8.5" fill="none" stroke="#2D7FF9" stroke-width="1.6" stroke-linecap="round" stroke-linejoin="round"></path></marker></defs><rect width="1280" height="720" fill="#F4F4F5"></rect><text font-family="Inter, &#39;DM Sans&#39;, system-ui, -apple-system, &#39;Helvetica Neue&#39;, Arial, sans-serif" x="80" y="90" font-size="64" fill="#2D7FF9" font-weight="700" text-anchor="start" dominant-baseline="middle">04</text><rect x="380" y="250" width="520" height="260" rx="8" fill="#FFFFFF" stroke="#0A0A0A" stroke-width="1.5"></rect><g fill="none" stroke="#2D7FF9" stroke-width="1.6" stroke-linecap="round" stroke-linejoin="round"><path d="M862,288 a8.4,8.4 0 1 0 -11,15.600000000000001 l-11,11 l6,6 l11,-11 a8.4,8.4 0 0 0 15.600000000000001,-11 l-8.4,8.4 l-8,-2 l-2,-8 Z"></path></g><text font-family="Inter, &#39;DM Sans&#39;, system-ui, -apple-system, &#39;Helvetica Neue&#39;, Arial, sans-serif" x="420" y="330" font-size="15" fill="#8A8F98" font-weight="400" text-anchor="start" dominant-baseline="middle">Field</text><text font-family="&#39;JetBrains Mono&#39;, &#39;SF Mono&#39;, ui-monospace, Menlo, monospace" x="640" y="330" font-size="18" fill="#0A0A0A" font-weight="600" text-anchor="start" dominant-baseline="middle">email</text><line x1="420" y1="370" x2="860" y2="370" stroke="#E2E8F2" stroke-width="1.5"></line><text font-family="Inter, &#39;DM Sans&#39;, system-ui, -apple-system, &#39;Helvetica Neue&#39;, Arial, sans-serif" x="420" y="420" font-size="15" fill="#8A8F98" font-weight="400" text-anchor="start" dominant-baseline="middle">Condition</text><text font-family="&#39;JetBrains Mono&#39;, &#39;SF Mono&#39;, ui-monospace, Menlo, monospace" x="640" y="420" font-size="18" fill="#0A0A0A" font-weight="600" text-anchor="start" dominant-baseline="middle">valid format</text><path d="M829.8,460.6 l6.6,7.199999999999999 l13.8,-15.600000000000001" fill="none" stroke="#00C9A7" stroke-width="4.8" stroke-linecap="round" stroke-linejoin="round"></path><text font-family="Inter, &#39;DM Sans&#39;, system-ui, -apple-system, &#39;Helvetica Neue&#39;, Arial, sans-serif" x="80" y="660" font-size="26" fill="#0A0A0A" font-weight="700" text-anchor="start" dominant-baseline="middle" letter-spacing="-0.3">Sohovi</text></svg>