<svg xmlns="http://www.w3.org/2000/svg" viewBox="0 0 1280 720" width="1280" height="720"><defs><marker id="ah" markerWidth="10" markerHeight="10" refX="7.5" refY="4.5" orient="auto"><path d="M0,0.5 L9,4.5 L0,8.5" fill="none" stroke="#0A0A0A" stroke-width="1.6" stroke-linecap="round" stroke-linejoin="round"></path></marker><marker id="ahb" markerWidth="10" markerHeight="10" refX="7.5" refY="4.5" orient="auto"><path d="M0,0.5 L9,4.5 L0,8.5" fill="none" stroke="#2D7FF9" stroke-width="1.6" stroke-linecap="round" stroke-linejoin="round"></path></marker></defs><rect width="1280" height="720" fill="#F4F4F5"></rect><text font-family="Inter, &#39;DM Sans&#39;, system-ui, -apple-system, &#39;Helvetica Neue&#39;, Arial, sans-serif" x="80" y="90" font-size="64" fill="#2D7FF9" font-weight="700" text-anchor="start" dominant-baseline="middle">02</text><rect x="240" y="216" width="150" height="88" rx="8" fill="#FFFFFF" stroke="#0A0A0A" stroke-width="1.5"></rect><g fill="none" stroke="#0A0A0A" stroke-width="1.6" stroke-linecap="round" stroke-linejoin="round"><path d="M305.65,246.4 h12.75 l5.949999999999999,5.949999999999999 v21.25 h-18.700000000000003 Z"></path><line x1="309.9" y1="258.3" x2="320.95" y2="258.3"></line><line x1="309.9" y1="264.25" x2="320.95" y2="264.25"></line></g><text font-family="Inter, &#39;DM Sans&#39;, system-ui, -apple-system, &#39;Helvetica Neue&#39;, Arial, sans-serif" x="315" y="318" font-size="14" fill="#0A0A0A" font-weight="600" text-anchor="middle" dominant-baseline="middle">CSV</text><path d="M260,355 L260,445 A55,14 0 0 0 370,445 L370,355" fill="#FFFFFF" stroke="#0A0A0A" stroke-width="1.5"></path><ellipse cx="315" cy="355" rx="55" ry="14" fill="#FFFFFF" stroke="#0A0A0A" stroke-width="1.5"></ellipse><text font-family="Inter, &#39;DM Sans&#39;, system-ui, -apple-system, &#39;Helvetica Neue&#39;, Arial, sans-serif" x="315" y="407" font-size="15" fill="#0A0A0A" font-weight="600" text-anchor="middle" dominant-baseline="middle">DB</text><g fill="none" stroke="#0A0A0A" stroke-width="1.6" stroke-linecap="round" stroke-linejoin="round"><circle cx="315" cy="540" r="6"></circle><circle cx="301" cy="540" r="3.2" fill="#0A0A0A"></circle><circle cx="329" cy="540" r="3.2" fill="#0A0A0A"></circle><circle cx="315" cy="526" r="3.2" fill="#0A0A0A"></circle><line x1="304" y1="540" x2="309" y2="540"></line><line x1="326" y1="540" x2="321" y2="540"></line><line x1="315" y1="529" x2="315" y2="534"></line></g><text font-family="Inter, &#39;DM Sans&#39;, system-ui, -apple-system, &#39;Helvetica Neue&#39;, Arial, sans-serif" x="315" y="598" font-size="14" fill="#0A0A0A" font-weight="600" text-anchor="middle" dominant-baseline="middle">API</text><circle cx="900" cy="400" r="100" fill="#2D7FF9" stroke="#0A0A0A" stroke-width="1.5"></circle><text font-family="Inter, &#39;DM Sans&#39;, system-ui, -apple-system, &#39;Helvetica Neue&#39;, Arial, sans-serif" x="900" y="400" font-size="24" fill="#FFFFFF" font-weight="600" text-anchor="middle" dominant-baseline="middle">Sohovi</text><line x1="420" y1="260" x2="790" y2="400" stroke="#0A0A0A" stroke-width="1.5" marker-end="url(#ah)" stroke-linecap="round"></line><line x1="420" y1="400" x2="790" y2="400" stroke="#0A0A0A" stroke-width="1.5" marker-end="url(#ah)" stroke-linecap="round"></line><line x1="420" y1="540" x2="790" y2="400" stroke="#0A0A0A" stroke-width="1.5" marker-end="url(#ah)" stroke-linecap="round"></line><text font-family="Inter, &#39;DM Sans&#39;, system-ui, -apple-system, &#39;Helvetica Neue&#39;, Arial, sans-serif" x="80" y="660" font-size="26" fill="#0A0A0A" font-weight="700" text-anchor="start" dominant-baseline="middle" letter-spacing="-0.3">Sohovi</text></svg>