<svg xmlns="http://www.w3.org/2000/svg" viewBox="0 0 1280 720" width="1280" height="720"><defs><marker id="ah" markerWidth="10" markerHeight="10" refX="7.5" refY="4.5" orient="auto"><path d="M0,0.5 L9,4.5 L0,8.5" fill="none" stroke="#0A0A0A" stroke-width="1.6" stroke-linecap="round" stroke-linejoin="round"></path></marker><marker id="ahb" markerWidth="10" markerHeight="10" refX="7.5" refY="4.5" orient="auto"><path d="M0,0.5 L9,4.5 L0,8.5" fill="none" stroke="#2D7FF9" stroke-width="1.6" stroke-linecap="round" stroke-linejoin="round"></path></marker></defs><rect width="1280" height="720" fill="#F4F4F5"></rect><text font-family="Inter, &#39;DM Sans&#39;, system-ui, -apple-system, &#39;Helvetica Neue&#39;, Arial, sans-serif" x="80" y="90" font-size="64" fill="#2D7FF9" font-weight="700" text-anchor="start" dominant-baseline="middle">01</text><g fill="none" stroke="#2D7FF9" stroke-width="1.6" stroke-linecap="round" stroke-linejoin="round"><circle cx="1180" cy="90" r="11"></circle><line x1="1193.64" y1="90" x2="1202" y2="90"></line><line x1="1189.6449364953844" y1="99.64493649538451" x2="1195.556349186104" y2="105.55634918610404"></line><line x1="1180" y1="103.64" x2="1180" y2="112"></line><line x1="1170.3550635046156" y1="99.64493649538451" x2="1164.443650813896" y2="105.55634918610404"></line><line x1="1166.36" y1="90" x2="1158" y2="90"></line><line x1="1170.3550635046156" y1="80.35506350461549" x2="1164.443650813896" y2="74.44365081389596"></line><line x1="1180" y1="76.36" x2="1180" y2="68"></line><line x1="1189.6449364953844" y1="80.35506350461549" x2="1195.556349186104" y2="74.44365081389596"></line></g><circle cx="640" cy="260" r="66" fill="#0A0A0A" stroke="#0A0A0A" stroke-width="1.5"></circle><text font-family="Inter, &#39;DM Sans&#39;, system-ui, -apple-system, &#39;Helvetica Neue&#39;, Arial, sans-serif" x="640" y="260" font-size="18" fill="#FFFFFF" font-weight="600" text-anchor="middle" dominant-baseline="middle">Admin</text><circle cx="440" cy="460" r="60" fill="#FFFFFF" stroke="#0A0A0A" stroke-width="1.5"></circle><text font-family="Inter, &#39;DM Sans&#39;, system-ui, -apple-system, &#39;Helvetica Neue&#39;, Arial, sans-serif" x="440" y="460" font-size="16" fill="#0A0A0A" font-weight="600" text-anchor="middle" dominant-baseline="middle">Team A</text><circle cx="840" cy="460" r="60" fill="#FFFFFF" stroke="#0A0A0A" stroke-width="1.5"></circle><text font-family="Inter, &#39;DM Sans&#39;, system-ui, -apple-system, &#39;Helvetica Neue&#39;, Arial, sans-serif" x="840" y="460" font-size="16" fill="#0A0A0A" font-weight="600" text-anchor="middle" dominant-baseline="middle">Team B</text><line x1="640" y1="326" x2="440" y2="400" stroke="#0A0A0A" stroke-width="1.5"></line><line x1="640" y1="326" x2="840" y2="400" stroke="#0A0A0A" stroke-width="1.5"></line><text font-family="Inter, &#39;DM Sans&#39;, system-ui, -apple-system, &#39;Helvetica Neue&#39;, Arial, sans-serif" x="80" y="660" font-size="26" fill="#0A0A0A" font-weight="700" text-anchor="start" dominant-baseline="middle" letter-spacing="-0.3">Sohovi</text></svg>