<svg xmlns="http://www.w3.org/2000/svg" viewBox="0 0 1280 720" width="1280" height="720"><defs><marker id="ah" markerWidth="10" markerHeight="10" refX="7.5" refY="4.5" orient="auto"><path d="M0,0.5 L9,4.5 L0,8.5" fill="none" stroke="#0A0A0A" stroke-width="1.6" stroke-linecap="round" stroke-linejoin="round"></path></marker><marker id="ahb" markerWidth="10" markerHeight="10" refX="7.5" refY="4.5" orient="auto"><path d="M0,0.5 L9,4.5 L0,8.5" fill="none" stroke="#2D7FF9" stroke-width="1.6" stroke-linecap="round" stroke-linejoin="round"></path></marker></defs><rect width="1280" height="720" fill="#F4F4F5"></rect><text font-family="Inter, &#39;DM Sans&#39;, system-ui, -apple-system, &#39;Helvetica Neue&#39;, Arial, sans-serif" x="80" y="90" font-size="64" fill="#2D7FF9" font-weight="700" text-anchor="start" dominant-baseline="middle">07</text><rect x="280" y="250" width="360" height="260" rx="8" fill="#FFFFFF" stroke="#0A0A0A" stroke-width="1.5"></rect><rect x="310" y="290" width="300" height="46" rx="8" fill="#FFFFFF" stroke="#0A0A0A" stroke-width="1.5" stroke-dasharray="5 4"></rect><line x1="330" y1="313" x2="590" y2="313" stroke="#0A0A0A" stroke-width="1.5" stroke-dasharray="4 4"></line><rect x="310" y="356" width="300" height="46" rx="8" fill="#FFFFFF" stroke="#0A0A0A" stroke-width="1.5" stroke-dasharray="5 4"></rect><line x1="330" y1="379" x2="590" y2="379" stroke="#0A0A0A" stroke-width="1.5" stroke-dasharray="4 4"></line><rect x="310" y="422" width="300" height="46" rx="8" fill="#FFFFFF" stroke="#0A0A0A" stroke-width="1.5" stroke-dasharray="5 4"></rect><line x1="330" y1="445" x2="590" y2="445" stroke="#0A0A0A" stroke-width="1.5" stroke-dasharray="4 4"></line><rect x="740" y="250" width="360" height="260" rx="8" fill="#FFFFFF" stroke="#0A0A0A" stroke-width="1.5"></rect><rect x="770" y="290" width="300" height="46" rx="8" fill="#FFFFFF" stroke="#E2E8F2" stroke-width="1.5"></rect><path d="M793.2,313.4 l4.4,4.8 l9.200000000000001,-10.4" fill="none" stroke="#00C9A7" stroke-width="3.2" stroke-linecap="round" stroke-linejoin="round"></path><line x1="830" y1="313" x2="1050" y2="313" stroke="#E2E8F2" stroke-width="1.5"></line><rect x="770" y="356" width="300" height="46" rx="8" fill="#FFFFFF" stroke="#E2E8F2" stroke-width="1.5"></rect><path d="M793.2,379.4 l4.4,4.8 l9.200000000000001,-10.4" fill="none" stroke="#00C9A7" stroke-width="3.2" stroke-linecap="round" stroke-linejoin="round"></path><line x1="830" y1="379" x2="1050" y2="379" stroke="#E2E8F2" stroke-width="1.5"></line><rect x="770" y="422" width="300" height="46" rx="8" fill="#FFFFFF" stroke="#E2E8F2" stroke-width="1.5"></rect><path d="M793.2,445.4 l4.4,4.8 l9.200000000000001,-10.4" fill="none" stroke="#00C9A7" stroke-width="3.2" stroke-linecap="round" stroke-linejoin="round"></path><line x1="830" y1="445" x2="1050" y2="445" stroke="#E2E8F2" stroke-width="1.5"></line><line x1="660" y1="380" x2="730" y2="380" stroke="#0A0A0A" stroke-width="1.5" marker-end="url(#ah)" stroke-linecap="round"></line><text font-family="Inter, &#39;DM Sans&#39;, system-ui, -apple-system, &#39;Helvetica Neue&#39;, Arial, sans-serif" x="80" y="660" font-size="26" fill="#0A0A0A" font-weight="700" text-anchor="start" dominant-baseline="middle" letter-spacing="-0.3">Sohovi</text></svg>