<svg xmlns="http://www.w3.org/2000/svg" viewBox="0 0 1280 720" width="1280" height="720"><defs><marker id="ah" markerWidth="10" markerHeight="10" refX="7.5" refY="4.5" orient="auto"><path d="M0,0.5 L9,4.5 L0,8.5" fill="none" stroke="#0A0A0A" stroke-width="1.6" stroke-linecap="round" stroke-linejoin="round"></path></marker><marker id="ahb" markerWidth="10" markerHeight="10" refX="7.5" refY="4.5" orient="auto"><path d="M0,0.5 L9,4.5 L0,8.5" fill="none" stroke="#2D7FF9" stroke-width="1.6" stroke-linecap="round" stroke-linejoin="round"></path></marker></defs><rect width="1280" height="720" fill="#F4F4F5"></rect><text font-family="Inter, &#39;DM Sans&#39;, system-ui, -apple-system, &#39;Helvetica Neue&#39;, Arial, sans-serif" x="80" y="90" font-size="64" fill="#2D7FF9" font-weight="700" text-anchor="start" dominant-baseline="middle">08</text><path d="M640,186 C644.32,205.68 644.32,205.68 664,210 C644.32,214.32 644.32,214.32 640,234 C635.68,214.32 635.68,214.32 616,210 C635.68,205.68 635.68,205.68 640,186 Z" fill="#0A0A0A" stroke="none"></path><rect x="380" y="270" width="520" height="250" rx="8" fill="#FFFFFF" stroke="#0A0A0A" stroke-width="1.5"></rect><rect x="412" y="300" width="456" height="64" rx="8" fill="#F4F4F5" stroke="#E2E8F2" stroke-width="1.5"></rect><text font-family="Inter, &#39;DM Sans&#39;, system-ui, -apple-system, &#39;Helvetica Neue&#39;, Arial, sans-serif" x="436" y="332" font-size="16" fill="#0A0A0A" font-weight="400" text-anchor="start" dominant-baseline="middle">must be a valid email</text><rect x="425" y="426" width="150" height="28" rx="14" fill="#2D7FF9" stroke="none" stroke-width="0"></rect><text font-family="Inter, &#39;DM Sans&#39;, system-ui, -apple-system, &#39;Helvetica Neue&#39;, Arial, sans-serif" x="500" y="440" font-size="14" fill="#FFFFFF" font-weight="700" text-anchor="middle" dominant-baseline="middle">not_null</text><rect x="620" y="426" width="200" height="28" rx="14" fill="#2D7FF9" stroke="none" stroke-width="0"></rect><text font-family="Inter, &#39;DM Sans&#39;, system-ui, -apple-system, &#39;Helvetica Neue&#39;, Arial, sans-serif" x="720" y="440" font-size="14" fill="#FFFFFF" font-weight="700" text-anchor="middle" dominant-baseline="middle">format_check</text><text font-family="Inter, &#39;DM Sans&#39;, system-ui, -apple-system, &#39;Helvetica Neue&#39;, Arial, sans-serif" x="80" y="660" font-size="26" fill="#0A0A0A" font-weight="700" text-anchor="start" dominant-baseline="middle" letter-spacing="-0.3">Sohovi</text></svg>