<svg xmlns="http://www.w3.org/2000/svg" viewBox="0 0 1280 720" width="1280" height="720"><defs><marker id="ah" markerWidth="10" markerHeight="10" refX="7.5" refY="4.5" orient="auto"><path d="M0,0.5 L9,4.5 L0,8.5" fill="none" stroke="#0A0A0A" stroke-width="1.6" stroke-linecap="round" stroke-linejoin="round"></path></marker><marker id="ahb" markerWidth="10" markerHeight="10" refX="7.5" refY="4.5" orient="auto"><path d="M0,0.5 L9,4.5 L0,8.5" fill="none" stroke="#2D7FF9" stroke-width="1.6" stroke-linecap="round" stroke-linejoin="round"></path></marker></defs><rect width="1280" height="720" fill="#F4F4F5"></rect><text font-family="Inter, &#39;DM Sans&#39;, system-ui, -apple-system, &#39;Helvetica Neue&#39;, Arial, sans-serif" x="80" y="90" font-size="64" fill="#2D7FF9" font-weight="700" text-anchor="start" dominant-baseline="middle">06</text><g fill="none" stroke="#0A0A0A" stroke-width="1.6" stroke-linecap="round" stroke-linejoin="round"><path d="M620.2,242.6 h39.6 a19.8,19.8 0 0 0 -6.4799999999999995,-12.6 v-7.2 a13.32,13.32 0 0 0 -26.64,0 v7.2 a19.8,19.8 0 0 0 -6.4799999999999995,12.6 Z"></path><path d="M633.52,249.8 a6.4799999999999995,6.4799999999999995 0 0 0 12.959999999999999,0"></path></g><circle cx="680" cy="200" r="12" fill="#2D7FF9" stroke="#2D7FF9" stroke-width="1.5"></circle><polyline points="360,500 440,490 520,495 600,360 680,500 760,495 840,500 920,498" fill="none" stroke="#0A0A0A" stroke-width="2.5" stroke-linejoin="round"></polyline><line x1="600" y1="330" x2="600" y2="560" stroke="#2D7FF9" stroke-width="1.5" stroke-dasharray="5 4"></line><rect x="566.2" y="306.5" width="67.6" height="27" rx="13.5" fill="#2D7FF9" stroke="none" stroke-width="0"></rect><text font-family="Inter, &#39;DM Sans&#39;, system-ui, -apple-system, &#39;Helvetica Neue&#39;, Arial, sans-serif" x="600" y="320" font-size="13" fill="#FFFFFF" font-weight="700" text-anchor="middle" dominant-baseline="middle">Alert</text><text font-family="Inter, &#39;DM Sans&#39;, system-ui, -apple-system, &#39;Helvetica Neue&#39;, Arial, sans-serif" x="80" y="660" font-size="26" fill="#0A0A0A" font-weight="700" text-anchor="start" dominant-baseline="middle" letter-spacing="-0.3">Sohovi</text></svg>