<svg xmlns="http://www.w3.org/2000/svg" viewBox="0 0 1200 630" width="1200" height="630"><defs><marker id="ah" markerWidth="10" markerHeight="10" refX="7.5" refY="4.5" orient="auto"><path d="M0,0.5 L9,4.5 L0,8.5" fill="none" stroke="#0A0A0A" stroke-width="1.6" stroke-linecap="round" stroke-linejoin="round"></path></marker><marker id="ahb" markerWidth="10" markerHeight="10" refX="7.5" refY="4.5" orient="auto"><path d="M0,0.5 L9,4.5 L0,8.5" fill="none" stroke="#2D7FF9" stroke-width="1.6" stroke-linecap="round" stroke-linejoin="round"></path></marker></defs><rect width="1200" height="630" fill="#F4F4F5"></rect><text font-family="Inter, &#39;DM Sans&#39;, system-ui, -apple-system, &#39;Helvetica Neue&#39;, Arial, sans-serif" x="70" y="80" font-size="28" fill="#0A0A0A" font-weight="700" text-anchor="start" dominant-baseline="middle" letter-spacing="-0.3">Sohovi</text><rect x="490" y="210" width="190" height="150" rx="10" fill="#2D7FF9" stroke="#0A0A0A" stroke-width="1.5"></rect><text font-family="&#39;JetBrains Mono&#39;, &#39;SF Mono&#39;, ui-monospace, Menlo, monospace" x="585" y="295" font-size="34" fill="#FFFFFF" font-weight="700" text-anchor="middle" dominant-baseline="middle">CSV</text><rect x="710" y="210" width="190" height="150" rx="10" fill="#FFFFFF" stroke="#0A0A0A" stroke-width="1.5"></rect><text font-family="&#39;JetBrains Mono&#39;, &#39;SF Mono&#39;, ui-monospace, Menlo, monospace" x="805" y="295" font-size="40" fill="#0A0A0A" font-weight="700" text-anchor="middle" dominant-baseline="middle">{ }</text><rect x="490" y="390" width="190" height="150" rx="10" fill="#FFFFFF" stroke="#0A0A0A" stroke-width="1.5"></rect><g fill="none" stroke="#0A0A0A" stroke-width="1.6" stroke-linecap="round" stroke-linejoin="round"><rect x="566.1" y="446.1" width="37.8" height="37.8" rx="2"></rect><line x1="585" y1="446.1" x2="585" y2="483.9"></line><line x1="566.1" y1="465" x2="603.9" y2="465"></line></g><rect x="710" y="390" width="190" height="150" rx="10" fill="#FFFFFF" stroke="#0A0A0A" stroke-width="1.5"></rect><path d="M788.68,465.96 l10.56,11.52 l22.080000000000002,-24.96" fill="none" stroke="#00C9A7" stroke-width="7.68" stroke-linecap="round" stroke-linejoin="round"></path><text font-family="Inter, &#39;DM Sans&#39;, system-ui, -apple-system, &#39;Helvetica Neue&#39;, Arial, sans-serif" x="600" y="560" font-size="26" fill="#0A0A0A" font-weight="600" text-anchor="middle" dominant-baseline="middle">Free Data Quality Tools</text></svg>