<svg xmlns="http://www.w3.org/2000/svg" viewBox="0 0 1200 630" width="1200" height="630"><defs><marker id="ah" markerWidth="10" markerHeight="10" refX="7.5" refY="4.5" orient="auto"><path d="M0,0.5 L9,4.5 L0,8.5" fill="none" stroke="#0A0A0A" stroke-width="1.6" stroke-linecap="round" stroke-linejoin="round"></path></marker><marker id="ahb" markerWidth="10" markerHeight="10" refX="7.5" refY="4.5" orient="auto"><path d="M0,0.5 L9,4.5 L0,8.5" fill="none" stroke="#2D7FF9" stroke-width="1.6" stroke-linecap="round" stroke-linejoin="round"></path></marker></defs><rect width="1200" height="630" fill="#F4F4F5"></rect><text font-family="Inter, &#39;DM Sans&#39;, system-ui, -apple-system, &#39;Helvetica Neue&#39;, Arial, sans-serif" x="70" y="80" font-size="28" fill="#0A0A0A" font-weight="700" text-anchor="start" dominant-baseline="middle" letter-spacing="-0.3">Sohovi</text><rect x="220" y="230" width="250" height="180" rx="10" fill="#FFFFFF" stroke="#0A0A0A" stroke-width="1.5"></rect><text font-family="&#39;JetBrains Mono&#39;, &#39;SF Mono&#39;, ui-monospace, Menlo, monospace" x="345" y="276.5" font-size="17" fill="#0A0A0A" font-weight="400" text-anchor="middle" dominant-baseline="middle">{</text><text font-family="&#39;JetBrains Mono&#39;, &#39;SF Mono&#39;, ui-monospace, Menlo, monospace" x="345" y="305.5" font-size="17" fill="#0A0A0A" font-weight="400" text-anchor="middle" dominant-baseline="middle">  &#34;name&#34;: &#34;Acme&#34;,</text><text font-family="&#39;JetBrains Mono&#39;, &#39;SF Mono&#39;, ui-monospace, Menlo, monospace" x="345" y="334.5" font-size="17" fill="#0A0A0A" font-weight="400" text-anchor="middle" dominant-baseline="middle">  &#34;id&#34;: 7</text><text font-family="&#39;JetBrains Mono&#39;, &#39;SF Mono&#39;, ui-monospace, Menlo, monospace" x="345" y="363.5" font-size="17" fill="#0A0A0A" font-weight="400" text-anchor="middle" dominant-baseline="middle">}</text><line x1="490" y1="320" x2="590" y2="320" stroke="#2D7FF9" stroke-width="2.5" marker-end="url(#ahb)" stroke-linecap="round"></line><rect x="610" y="230" width="370" height="180" rx="10" fill="#FFFFFF" stroke="#0A0A0A" stroke-width="1.5"></rect><rect x="630" y="250" width="108" height="50" rx="0" fill="#F4F4F5" stroke="#E2E8F2" stroke-width="1.5"></rect><rect x="740" y="250" width="108" height="50" rx="0" fill="#F4F4F5" stroke="#E2E8F2" stroke-width="1.5"></rect><rect x="850" y="250" width="108" height="50" rx="0" fill="#F4F4F5" stroke="#E2E8F2" stroke-width="1.5"></rect><rect x="630" y="302" width="108" height="50" rx="0" fill="#FFFFFF" stroke="#E2E8F2" stroke-width="1.5"></rect><rect x="740" y="302" width="108" height="50" rx="0" fill="#FFFFFF" stroke="#E2E8F2" stroke-width="1.5"></rect><rect x="850" y="302" width="108" height="50" rx="0" fill="#FFFFFF" stroke="#E2E8F2" stroke-width="1.5"></rect><rect x="630" y="354" width="108" height="50" rx="0" fill="#FFFFFF" stroke="#E2E8F2" stroke-width="1.5"></rect><rect x="740" y="354" width="108" height="50" rx="0" fill="#FFFFFF" stroke="#E2E8F2" stroke-width="1.5"></rect><rect x="850" y="354" width="108" height="50" rx="0" fill="#FFFFFF" stroke="#E2E8F2" stroke-width="1.5"></rect><text font-family="Inter, &#39;DM Sans&#39;, system-ui, -apple-system, &#39;Helvetica Neue&#39;, Arial, sans-serif" x="600" y="520" font-size="30" fill="#0A0A0A" font-weight="700" text-anchor="middle" dominant-baseline="middle">JSON → CSV</text></svg>