<svg xmlns="http://www.w3.org/2000/svg" viewBox="0 0 1200 628" width="1200" height="628"><defs><marker id="ah" markerWidth="10" markerHeight="10" refX="7.5" refY="4.5" orient="auto"><path d="M0,0.5 L9,4.5 L0,8.5" fill="none" stroke="#0A0A0A" stroke-width="1.6" stroke-linecap="round" stroke-linejoin="round"></path></marker><marker id="ahb" markerWidth="10" markerHeight="10" refX="7.5" refY="4.5" orient="auto"><path d="M0,0.5 L9,4.5 L0,8.5" fill="none" stroke="#2D7FF9" stroke-width="1.6" stroke-linecap="round" stroke-linejoin="round"></path></marker></defs><rect width="1200" height="628" fill="#FFFFFF"></rect><rect x="0" y="0" width="16" height="628" rx="0" fill="#2D7FF9" stroke="none" stroke-width="1.5"></rect><path d="M880,190 C890.8,239.2 890.8,239.2 940,250 C890.8,260.8 890.8,260.8 880,310 C869.2,260.8 869.2,260.8 820,250 C869.2,239.2 869.2,239.2 880,190 Z" fill="#2D7FF9" stroke="none"></path><rect x="715" y="416" width="150" height="28" rx="14" fill="#FFFFFF" stroke="#0A0A0A" stroke-width="1.5"></rect><text font-family="Inter, &#39;DM Sans&#39;, system-ui, -apple-system, &#39;Helvetica Neue&#39;, Arial, sans-serif" x="790" y="430" font-size="14" fill="#0A0A0A" font-weight="700" text-anchor="middle" dominant-baseline="middle">not_null</text><rect x="895" y="416" width="190" height="28" rx="14" fill="#FFFFFF" stroke="#0A0A0A" stroke-width="1.5"></rect><text font-family="Inter, &#39;DM Sans&#39;, system-ui, -apple-system, &#39;Helvetica Neue&#39;, Arial, sans-serif" x="990" y="430" font-size="14" fill="#0A0A0A" font-weight="700" text-anchor="middle" dominant-baseline="middle">format_check</text></svg>