<svg xmlns="http://www.w3.org/2000/svg" viewBox="0 0 1400 700" width="1400" height="700"><defs><marker id="ah" markerWidth="10" markerHeight="10" refX="7.5" refY="4.5" orient="auto"><path d="M0,0.5 L9,4.5 L0,8.5" fill="none" stroke="#0A0A0A" stroke-width="1.6" stroke-linecap="round" stroke-linejoin="round"></path></marker><marker id="ahb" markerWidth="10" markerHeight="10" refX="7.5" refY="4.5" orient="auto"><path d="M0,0.5 L9,4.5 L0,8.5" fill="none" stroke="#2D7FF9" stroke-width="1.6" stroke-linecap="round" stroke-linejoin="round"></path></marker></defs><rect width="1400" height="700" fill="#F4F4F5"></rect><text font-family="Inter, &#39;DM Sans&#39;, system-ui, -apple-system, &#39;Helvetica Neue&#39;, Arial, sans-serif" x="60" y="60" font-size="13" fill="#2D7FF9" font-weight="700" text-anchor="start" dominant-baseline="middle" letter-spacing="1.5">STANDARDIZATION</text><text font-family="Inter, &#39;DM Sans&#39;, system-ui, -apple-system, &#39;Helvetica Neue&#39;, Arial, sans-serif" x="60" y="94" font-size="20" fill="#0A0A0A" font-weight="700" text-anchor="start" dominant-baseline="middle">Industry Field: 150+ Values → 12 Categories</text><line x1="700" y1="150" x2="700" y2="640" stroke="#E2E8F2" stroke-width="1.5"></line><text font-family="Inter, &#39;DM Sans&#39;, system-ui, -apple-system, &#39;Helvetica Neue&#39;, Arial, sans-serif" x="360" y="185" font-size="14" fill="#8A8F98" font-weight="700" text-anchor="middle" dominant-baseline="middle">Before</text><rect x="120" y="537.7657959620154" width="20" height="62.23420403798462" rx="2" fill="#0A0A0A" stroke="none" stroke-width="1.5"></rect><rect x="148" y="526.7211475953994" width="20" height="73.2788524046006" rx="2" fill="#0A0A0A" stroke="none" stroke-width="1.5"></rect><rect x="176" y="551.741350252739" width="20" height="48.258649747261" rx="2" fill="#0A0A0A" stroke="none" stroke-width="1.5"></rect><rect x="204" y="501.93520778334005" width="20" height="98.06479221665997" rx="2" fill="#0A0A0A" stroke="none" stroke-width="1.5"></rect><rect x="232" y="540.643981641428" width="20" height="59.35601835857194" rx="2" fill="#0A0A0A" stroke="none" stroke-width="1.5"></rect><rect x="260" y="547.409701192144" width="20" height="52.59029880785604" rx="2" fill="#0A0A0A" stroke="none" stroke-width="1.5"></rect><rect x="288" y="515.2829541403875" width="20" height="84.71704585961253" rx="2" fill="#0A0A0A" stroke="none" stroke-width="1.5"></rect><rect x="316" y="519.9417564714945" width="20" height="80.05824352850547" rx="2" fill="#0A0A0A" stroke="none" stroke-width="1.5"></rect><rect x="344" y="514.6023336129088" width="20" height="85.3976663870913" rx="2" fill="#0A0A0A" stroke="none" stroke-width="1.5"></rect><rect x="372" y="539.2117338803196" width="20" height="60.78826611968044" rx="2" fill="#0A0A0A" stroke="none" stroke-width="1.5"></rect><rect x="400" y="558.5207050054532" width="20" height="41.4792949945468" rx="2" fill="#0A0A0A" stroke="none" stroke-width="1.5"></rect><rect x="428" y="554.2781648553527" width="20" height="45.72183514464736" rx="2" fill="#0A0A0A" stroke="none" stroke-width="1.5"></rect><rect x="476" y="220" width="90" height="380" rx="4" fill="#2D7FF9" stroke="none" stroke-width="1.5"></rect><text font-family="Inter, &#39;DM Sans&#39;, system-ui, -apple-system, &#39;Helvetica Neue&#39;, Arial, sans-serif" x="521" y="391.5" font-size="13" fill="#FFFFFF" font-weight="700" text-anchor="middle" dominant-baseline="middle">Other</text><text font-family="Inter, &#39;DM Sans&#39;, system-ui, -apple-system, &#39;Helvetica Neue&#39;, Arial, sans-serif" x="521" y="408.5" font-size="13" fill="#FFFFFF" font-weight="700" text-anchor="middle" dominant-baseline="middle">(138)</text><text font-family="Inter, &#39;DM Sans&#39;, system-ui, -apple-system, &#39;Helvetica Neue&#39;, Arial, sans-serif" x="1040" y="185" font-size="14" fill="#2D7FF9" font-weight="700" text-anchor="middle" dominant-baseline="middle">After</text><rect x="780" y="540" width="40" height="60" rx="3" fill="#0A0A0A" stroke="none" stroke-width="1.5"></rect><rect x="828" y="487" width="40" height="113" rx="3" fill="#0A0A0A" stroke="none" stroke-width="1.5"></rect><rect x="876" y="434" width="40" height="166" rx="3" fill="#0A0A0A" stroke="none" stroke-width="1.5"></rect><rect x="924" y="381" width="40" height="219" rx="3" fill="#0A0A0A" stroke="none" stroke-width="1.5"></rect><rect x="972" y="508" width="40" height="92" rx="3" fill="#0A0A0A" stroke="none" stroke-width="1.5"></rect><rect x="1020" y="455" width="40" height="145" rx="3" fill="#0A0A0A" stroke="none" stroke-width="1.5"></rect><rect x="1068" y="402" width="40" height="198" rx="3" fill="#0A0A0A" stroke="none" stroke-width="1.5"></rect><rect x="1116" y="529" width="40" height="71" rx="3" fill="#0A0A0A" stroke="none" stroke-width="1.5"></rect><rect x="1164" y="476" width="40" height="124" rx="3" fill="#0A0A0A" stroke="none" stroke-width="1.5"></rect><rect x="1212" y="423" width="40" height="177" rx="3" fill="#0A0A0A" stroke="none" stroke-width="1.5"></rect><rect x="1260" y="370" width="40" height="230" rx="3" fill="#0A0A0A" stroke="none" stroke-width="1.5"></rect><rect x="1308" y="497" width="40" height="103" rx="3" fill="#0A0A0A" stroke="none" stroke-width="1.5"></rect><text font-family="Inter, &#39;DM Sans&#39;, system-ui, -apple-system, &#39;Helvetica Neue&#39;, Arial, sans-serif" x="1050" y="630" font-size="14" fill="#0A0A0A" font-weight="600" text-anchor="middle" dominant-baseline="middle">Standardized: 12 Categories</text></svg>