<svg xmlns="http://www.w3.org/2000/svg" viewBox="0 0 900 800" width="900" height="800"><defs><marker id="ah" markerWidth="10" markerHeight="10" refX="7.5" refY="4.5" orient="auto"><path d="M0,0.5 L9,4.5 L0,8.5" fill="none" stroke="#0A0A0A" stroke-width="1.6" stroke-linecap="round" stroke-linejoin="round"></path></marker><marker id="ahb" markerWidth="10" markerHeight="10" refX="7.5" refY="4.5" orient="auto"><path d="M0,0.5 L9,4.5 L0,8.5" fill="none" stroke="#2D7FF9" stroke-width="1.6" stroke-linecap="round" stroke-linejoin="round"></path></marker></defs><rect width="900" height="800" fill="#F4F4F5"></rect><text font-family="Inter, &#39;DM Sans&#39;, system-ui, -apple-system, &#39;Helvetica Neue&#39;, Arial, sans-serif" x="54" y="64" font-size="13" fill="#2D7FF9" font-weight="700" text-anchor="start" dominant-baseline="middle" letter-spacing="1.5">CHECKPOINTS</text><text font-family="Inter, &#39;DM Sans&#39;, system-ui, -apple-system, &#39;Helvetica Neue&#39;, Arial, sans-serif" x="54" y="98" font-size="20" fill="#0A0A0A" font-weight="700" text-anchor="start" dominant-baseline="middle">Five Integration Checkpoints</text><line x1="120" y1="200" x2="120" y2="616" stroke="#2D7FF9" stroke-width="1.5" stroke-dasharray="2 6"></line><path d="M120,183 L133.26,189.12 L133.26,201.7 Q133.26,214.28 120,217 Q106.74,214.28 106.74,201.7 L106.74,189.12 Z" fill="#2D7FF9" stroke="#2D7FF9" stroke-width="1.6"></path><path d="M114.22,200.34 l3.74,4.08 l7.82,-8.84" fill="none" stroke="#FFFFFF" stroke-width="3.06" stroke-linecap="round" stroke-linejoin="round"></path><text font-family="Inter, &#39;DM Sans&#39;, system-ui, -apple-system, &#39;Helvetica Neue&#39;, Arial, sans-serif" x="190" y="200" font-size="18" fill="#0A0A0A" font-weight="600" text-anchor="start" dominant-baseline="middle">File Receipt</text><rect x="60" y="260" width="780" height="88" rx="8" fill="#F4F4F5" stroke="none" stroke-width="1.5"></rect><path d="M120,287 L133.26,293.12 L133.26,305.7 Q133.26,318.28 120,321 Q106.74,318.28 106.74,305.7 L106.74,293.12 Z" fill="#2D7FF9" stroke="#2D7FF9" stroke-width="1.6"></path><path d="M114.22,304.34 l3.74,4.08 l7.82,-8.84" fill="none" stroke="#FFFFFF" stroke-width="3.06" stroke-linecap="round" stroke-linejoin="round"></path><text font-family="Inter, &#39;DM Sans&#39;, system-ui, -apple-system, &#39;Helvetica Neue&#39;, Arial, sans-serif" x="190" y="304" font-size="18" fill="#0A0A0A" font-weight="600" text-anchor="start" dominant-baseline="middle">Form Entry</text><path d="M120,391 L133.26,397.12 L133.26,409.7 Q133.26,422.28 120,425 Q106.74,422.28 106.74,409.7 L106.74,397.12 Z" fill="#2D7FF9" stroke="#2D7FF9" stroke-width="1.6"></path><path d="M114.22,408.34 l3.74,4.08 l7.82,-8.84" fill="none" stroke="#FFFFFF" stroke-width="3.06" stroke-linecap="round" stroke-linejoin="round"></path><text font-family="Inter, &#39;DM Sans&#39;, system-ui, -apple-system, &#39;Helvetica Neue&#39;, Arial, sans-serif" x="190" y="408" font-size="18" fill="#0A0A0A" font-weight="600" text-anchor="start" dominant-baseline="middle">Pipeline Run</text><rect x="60" y="468" width="780" height="88" rx="8" fill="#F4F4F5" stroke="none" stroke-width="1.5"></rect><path d="M120,495 L133.26,501.12 L133.26,513.7 Q133.26,526.28 120,529 Q106.74,526.28 106.74,513.7 L106.74,501.12 Z" fill="#2D7FF9" stroke="#2D7FF9" stroke-width="1.6"></path><path d="M114.22,512.34 l3.74,4.08 l7.82,-8.84" fill="none" stroke="#FFFFFF" stroke-width="3.06" stroke-linecap="round" stroke-linejoin="round"></path><text font-family="Inter, &#39;DM Sans&#39;, system-ui, -apple-system, &#39;Helvetica Neue&#39;, Arial, sans-serif" x="190" y="512" font-size="18" fill="#0A0A0A" font-weight="600" text-anchor="start" dominant-baseline="middle">Report Prep</text><path d="M120,599 L133.26,605.12 L133.26,617.7 Q133.26,630.28 120,633 Q106.74,630.28 106.74,617.7 L106.74,605.12 Z" fill="#2D7FF9" stroke="#2D7FF9" stroke-width="1.6"></path><path d="M114.22,616.34 l3.74,4.08 l7.82,-8.84" fill="none" stroke="#FFFFFF" stroke-width="3.06" stroke-linecap="round" stroke-linejoin="round"></path><text font-family="Inter, &#39;DM Sans&#39;, system-ui, -apple-system, &#39;Helvetica Neue&#39;, Arial, sans-serif" x="190" y="616" font-size="18" fill="#0A0A0A" font-weight="600" text-anchor="start" dominant-baseline="middle">System Export</text></svg>