<svg xmlns="http://www.w3.org/2000/svg" viewBox="0 0 1200 700" width="1200" height="700"><defs><marker id="ah" markerWidth="10" markerHeight="10" refX="7.5" refY="4.5" orient="auto"><path d="M0,0.5 L9,4.5 L0,8.5" fill="none" stroke="#0A0A0A" stroke-width="1.6" stroke-linecap="round" stroke-linejoin="round"></path></marker><marker id="ahb" markerWidth="10" markerHeight="10" refX="7.5" refY="4.5" orient="auto"><path d="M0,0.5 L9,4.5 L0,8.5" fill="none" stroke="#2D7FF9" stroke-width="1.6" stroke-linecap="round" stroke-linejoin="round"></path></marker></defs><rect width="1200" height="700" fill="#F4F4F5"></rect><text font-family="Inter, &#39;DM Sans&#39;, system-ui, -apple-system, &#39;Helvetica Neue&#39;, Arial, sans-serif" x="60" y="60" font-size="13" fill="#2D7FF9" font-weight="700" text-anchor="start" dominant-baseline="middle" letter-spacing="1.5">THRESHOLD</text><text font-family="Inter, &#39;DM Sans&#39;, system-ui, -apple-system, &#39;Helvetica Neue&#39;, Arial, sans-serif" x="60" y="94" font-size="20" fill="#0A0A0A" font-weight="700" text-anchor="start" dominant-baseline="middle">Quality Score with Threshold Zones</text><rect x="150" y="410" width="940" height="160" rx="0" fill="#2D7FF9" stroke="none" stroke-width="1.5" opacity="0.08"></rect><rect x="150" y="170" width="940" height="80" rx="0" fill="#00C9A7" stroke="none" stroke-width="1.5" opacity="0.1"></rect><line x1="150" y1="170" x2="150" y2="570" stroke="#0A0A0A" stroke-width="1.5"></line><line x1="150" y1="570" x2="1090" y2="570" stroke="#0A0A0A" stroke-width="1.5"></line><line x1="150" y1="410" x2="1090" y2="410" stroke="#0A0A0A" stroke-width="1.5" stroke-dasharray="5 4"></line><text font-family="Inter, &#39;DM Sans&#39;, system-ui, -apple-system, &#39;Helvetica Neue&#39;, Arial, sans-serif" x="1084" y="398" font-size="11" fill="#8A8F98" font-weight="400" text-anchor="end" dominant-baseline="middle">Threshold 85%</text><polyline points="150,362 217.14285714285714,330 284.2857142857143,394 351.42857142857144,298 418.57142857142856,410 485.7142857142857,490 552.8571428571429,426 620,346 687.1428571428571,314 754.2857142857143,282 821.4285714285714,330 888.5714285714286,250 955.7142857142857,266 1022.8571428571429,218 1090,298" fill="none" stroke="#0A0A0A" stroke-width="2.5" stroke-linecap="round" stroke-linejoin="round"></polyline><text font-family="Inter, &#39;DM Sans&#39;, system-ui, -apple-system, &#39;Helvetica Neue&#39;, Arial, sans-serif" x="135" y="170" font-size="12" fill="#8A8F98" font-weight="400" text-anchor="end" dominant-baseline="middle">100%</text><text font-family="Inter, &#39;DM Sans&#39;, system-ui, -apple-system, &#39;Helvetica Neue&#39;, Arial, sans-serif" x="135" y="570" font-size="12" fill="#8A8F98" font-weight="400" text-anchor="end" dominant-baseline="middle">75%</text></svg>