<svg xmlns="http://www.w3.org/2000/svg" viewBox="0 0 1200 700" width="1200" height="700"><defs><marker id="ah" markerWidth="10" markerHeight="10" refX="7.5" refY="4.5" orient="auto"><path d="M0,0.5 L9,4.5 L0,8.5" fill="none" stroke="#0A0A0A" stroke-width="1.6" stroke-linecap="round" stroke-linejoin="round"></path></marker><marker id="ahb" markerWidth="10" markerHeight="10" refX="7.5" refY="4.5" orient="auto"><path d="M0,0.5 L9,4.5 L0,8.5" fill="none" stroke="#2D7FF9" stroke-width="1.6" stroke-linecap="round" stroke-linejoin="round"></path></marker></defs><rect width="1200" height="700" fill="#F4F4F5"></rect><text font-family="Inter, &#39;DM Sans&#39;, system-ui, -apple-system, &#39;Helvetica Neue&#39;, Arial, sans-serif" x="60" y="60" font-size="13" fill="#2D7FF9" font-weight="700" text-anchor="start" dominant-baseline="middle" letter-spacing="1.5">MONITORING</text><text font-family="Inter, &#39;DM Sans&#39;, system-ui, -apple-system, &#39;Helvetica Neue&#39;, Arial, sans-serif" x="60" y="94" font-size="20" fill="#0A0A0A" font-weight="700" text-anchor="start" dominant-baseline="middle">Null Rate Heatmap Across 5 Runs</text><text font-family="&#39;JetBrains Mono&#39;, &#39;SF Mono&#39;, ui-monospace, Menlo, monospace" x="300" y="225" font-size="14" fill="#0A0A0A" font-weight="400" text-anchor="end" dominant-baseline="middle">customer_id</text><rect x="320" y="170" width="110" height="110" rx="6" fill="#FFFFFF" stroke="#E2E8F2" stroke-width="1.5"></rect><rect x="438" y="170" width="110" height="110" rx="6" fill="#FFFFFF" stroke="#E2E8F2" stroke-width="1.5"></rect><rect x="556" y="170" width="110" height="110" rx="6" fill="#FFFFFF" stroke="#E2E8F2" stroke-width="1.5"></rect><rect x="674" y="170" width="110" height="110" rx="6" fill="#FFFFFF" stroke="#E2E8F2" stroke-width="1.5"></rect><rect x="792" y="170" width="110" height="110" rx="6" fill="#FFFFFF" stroke="#E2E8F2" stroke-width="1.5"></rect><text font-family="&#39;JetBrains Mono&#39;, &#39;SF Mono&#39;, ui-monospace, Menlo, monospace" x="300" y="343" font-size="14" fill="#0A0A0A" font-weight="400" text-anchor="end" dominant-baseline="middle">customer_email</text><rect x="320" y="288" width="110" height="110" rx="6" fill="#FFFFFF" stroke="#E2E8F2" stroke-width="1.5"></rect><rect x="438" y="288" width="110" height="110" rx="6" fill="#FFFFFF" stroke="#E2E8F2" stroke-width="1.5"></rect><rect x="556" y="288" width="110" height="110" rx="6" fill="#a1c5fc" stroke="#E2E8F2" stroke-width="1.5"></rect><rect x="674" y="288" width="110" height="110" rx="6" fill="#a1c5fc" stroke="#E2E8F2" stroke-width="1.5"></rect><rect x="792" y="288" width="110" height="110" rx="6" fill="#2D7FF9" stroke="#E2E8F2" stroke-width="1.5"></rect><text font-family="&#39;JetBrains Mono&#39;, &#39;SF Mono&#39;, ui-monospace, Menlo, monospace" x="300" y="461" font-size="14" fill="#0A0A0A" font-weight="400" text-anchor="end" dominant-baseline="middle">signup_date</text><rect x="320" y="406" width="110" height="110" rx="6" fill="#FFFFFF" stroke="#E2E8F2" stroke-width="1.5"></rect><rect x="438" y="406" width="110" height="110" rx="6" fill="#FFFFFF" stroke="#E2E8F2" stroke-width="1.5"></rect><rect x="556" y="406" width="110" height="110" rx="6" fill="#FFFFFF" stroke="#E2E8F2" stroke-width="1.5"></rect><rect x="674" y="406" width="110" height="110" rx="6" fill="#a1c5fc" stroke="#E2E8F2" stroke-width="1.5"></rect><rect x="792" y="406" width="110" height="110" rx="6" fill="#FFFFFF" stroke="#E2E8F2" stroke-width="1.5"></rect><text font-family="&#39;JetBrains Mono&#39;, &#39;SF Mono&#39;, ui-monospace, Menlo, monospace" x="300" y="579" font-size="14" fill="#0A0A0A" font-weight="400" text-anchor="end" dominant-baseline="middle">plan_tier</text><rect x="320" y="524" width="110" height="110" rx="6" fill="#a1c5fc" stroke="#E2E8F2" stroke-width="1.5"></rect><rect x="438" y="524" width="110" height="110" rx="6" fill="#FFFFFF" stroke="#E2E8F2" stroke-width="1.5"></rect><rect x="556" y="524" width="110" height="110" rx="6" fill="#FFFFFF" stroke="#E2E8F2" stroke-width="1.5"></rect><rect x="674" y="524" width="110" height="110" rx="6" fill="#FFFFFF" stroke="#E2E8F2" stroke-width="1.5"></rect><rect x="792" y="524" width="110" height="110" rx="6" fill="#a1c5fc" stroke="#E2E8F2" stroke-width="1.5"></rect><text font-family="&#39;JetBrains Mono&#39;, &#39;SF Mono&#39;, ui-monospace, Menlo, monospace" x="300" y="697" font-size="14" fill="#0A0A0A" font-weight="400" text-anchor="end" dominant-baseline="middle">region</text><rect x="320" y="642" width="110" height="110" rx="6" fill="#FFFFFF" stroke="#E2E8F2" stroke-width="1.5"></rect><rect x="438" y="642" width="110" height="110" rx="6" fill="#FFFFFF" stroke="#E2E8F2" stroke-width="1.5"></rect><rect x="556" y="642" width="110" height="110" rx="6" fill="#a1c5fc" stroke="#E2E8F2" stroke-width="1.5"></rect><rect x="674" y="642" width="110" height="110" rx="6" fill="#FFFFFF" stroke="#E2E8F2" stroke-width="1.5"></rect><rect x="792" y="642" width="110" height="110" rx="6" fill="#FFFFFF" stroke="#E2E8F2" stroke-width="1.5"></rect><text font-family="Inter, &#39;DM Sans&#39;, system-ui, -apple-system, &#39;Helvetica Neue&#39;, Arial, sans-serif" x="375" y="154" font-size="13" fill="#0A0A0A" font-weight="600" text-anchor="middle" dominant-baseline="middle">Run 1</text><text font-family="Inter, &#39;DM Sans&#39;, system-ui, -apple-system, &#39;Helvetica Neue&#39;, Arial, sans-serif" x="493" y="154" font-size="13" fill="#0A0A0A" font-weight="600" text-anchor="middle" dominant-baseline="middle">Run 2</text><text font-family="Inter, &#39;DM Sans&#39;, system-ui, -apple-system, &#39;Helvetica Neue&#39;, Arial, sans-serif" x="611" y="154" font-size="13" fill="#0A0A0A" font-weight="600" text-anchor="middle" dominant-baseline="middle">Run 3</text><text font-family="Inter, &#39;DM Sans&#39;, system-ui, -apple-system, &#39;Helvetica Neue&#39;, Arial, sans-serif" x="729" y="154" font-size="13" fill="#0A0A0A" font-weight="600" text-anchor="middle" dominant-baseline="middle">Run 4</text><text font-family="Inter, &#39;DM Sans&#39;, system-ui, -apple-system, &#39;Helvetica Neue&#39;, Arial, sans-serif" x="847" y="154" font-size="13" fill="#0A0A0A" font-weight="600" text-anchor="middle" dominant-baseline="middle">Run 5</text><g fill="none" stroke="#FFFFFF" stroke-width="1.6" stroke-linecap="round" stroke-linejoin="round"><path d="M847,331 L859.75,353.5 H834.25 Z"></path><line x1="847" y1="340.75" x2="847" y2="346.75"></line><circle cx="847" cy="350.5" r="0.8" fill="#FFFFFF" stroke="none"></circle></g></svg>