<svg xmlns="http://www.w3.org/2000/svg" viewBox="0 0 1000 700" width="1000" height="700"><defs><marker id="ah" markerWidth="10" markerHeight="10" refX="7.5" refY="4.5" orient="auto"><path d="M0,0.5 L9,4.5 L0,8.5" fill="none" stroke="#0A0A0A" stroke-width="1.6" stroke-linecap="round" stroke-linejoin="round"></path></marker><marker id="ahb" markerWidth="10" markerHeight="10" refX="7.5" refY="4.5" orient="auto"><path d="M0,0.5 L9,4.5 L0,8.5" fill="none" stroke="#2D7FF9" stroke-width="1.6" stroke-linecap="round" stroke-linejoin="round"></path></marker></defs><rect width="1000" height="700" fill="#F4F4F5"></rect><text font-family="Inter, &#39;DM Sans&#39;, system-ui, -apple-system, &#39;Helvetica Neue&#39;, Arial, sans-serif" x="60" y="60" font-size="13" fill="#2D7FF9" font-weight="700" text-anchor="start" dominant-baseline="middle" letter-spacing="1.5">OBSERVABILITY</text><text font-family="Inter, &#39;DM Sans&#39;, system-ui, -apple-system, &#39;Helvetica Neue&#39;, Arial, sans-serif" x="60" y="94" font-size="20" fill="#0A0A0A" font-weight="700" text-anchor="start" dominant-baseline="middle">Data Observability Dashboard</text><rect x="80" y="160" width="380" height="200" rx="8" fill="#FFFFFF" stroke="#0A0A0A" stroke-width="1.5"></rect><g fill="none" stroke="#0A0A0A" stroke-width="1.6" stroke-linecap="round" stroke-linejoin="round"><circle cx="124" cy="210" r="12.75"></circle><path d="M124,203.25 V210 L129.25,213"></path></g><text font-family="Inter, &#39;DM Sans&#39;, system-ui, -apple-system, &#39;Helvetica Neue&#39;, Arial, sans-serif" x="152" y="210" font-size="20" fill="#0A0A0A" font-weight="700" text-anchor="start" dominant-baseline="middle">Freshness</text><polyline points="120,290 168,273 216,282 264,265 312,274 360,283 408,266" fill="none" stroke="#8A8F98" stroke-width="2"></polyline><rect x="500" y="160" width="380" height="200" rx="8" fill="#FFFFFF" stroke="#0A0A0A" stroke-width="1.5"></rect><g fill="none" stroke="#0A0A0A" stroke-width="1.6" stroke-linecap="round" stroke-linejoin="round"><line x1="536.5" y1="219" x2="536.5" y2="211.5"></line><line x1="544" y1="219" x2="544" y2="205.5"></line><line x1="551.5" y1="219" x2="551.5" y2="201"></line></g><text font-family="Inter, &#39;DM Sans&#39;, system-ui, -apple-system, &#39;Helvetica Neue&#39;, Arial, sans-serif" x="572" y="210" font-size="20" fill="#0A0A0A" font-weight="700" text-anchor="start" dominant-baseline="middle">Volume</text><polyline points="540,290 588,277 636,264 684,281 732,268 780,250 828,272" fill="none" stroke="#2D7FF9" stroke-width="2"></polyline><rect x="752.36" y="187.5" width="75.28" height="25" rx="12.5" fill="#2D7FF9" stroke="none" stroke-width="0"></rect><text font-family="Inter, &#39;DM Sans&#39;, system-ui, -apple-system, &#39;Helvetica Neue&#39;, Arial, sans-serif" x="790" y="200" font-size="11" fill="#FFFFFF" font-weight="700" text-anchor="middle" dominant-baseline="middle">Anomaly</text><rect x="80" y="400" width="380" height="200" rx="8" fill="#FFFFFF" stroke="#0A0A0A" stroke-width="1.5"></rect><g fill="none" stroke="#0A0A0A" stroke-width="1.6" stroke-linecap="round" stroke-linejoin="round"><rect x="113.5" y="439.5" width="21" height="21" rx="2"></rect><line x1="124" y1="439.5" x2="124" y2="460.5"></line><line x1="113.5" y1="450" x2="134.5" y2="450"></line></g><text font-family="Inter, &#39;DM Sans&#39;, system-ui, -apple-system, &#39;Helvetica Neue&#39;, Arial, sans-serif" x="152" y="450" font-size="20" fill="#0A0A0A" font-weight="700" text-anchor="start" dominant-baseline="middle">Schema</text><polyline points="120,530 168,513 216,522 264,505 312,514 360,523 408,506" fill="none" stroke="#8A8F98" stroke-width="2"></polyline><rect x="500" y="400" width="380" height="200" rx="8" fill="#FFFFFF" stroke="#0A0A0A" stroke-width="1.5"></rect><g fill="none" stroke="#0A0A0A" stroke-width="1.6" stroke-linecap="round" stroke-linejoin="round"><path d="M531.25,450 q6.3,-10.5 12.75,0 q6.3,10.5 12.75,0"></path></g><text font-family="Inter, &#39;DM Sans&#39;, system-ui, -apple-system, &#39;Helvetica Neue&#39;, Arial, sans-serif" x="572" y="450" font-size="20" fill="#0A0A0A" font-weight="700" text-anchor="start" dominant-baseline="middle">Distribution</text><polyline points="540,530 588,513 636,522 684,505 732,514 780,523 828,506" fill="none" stroke="#8A8F98" stroke-width="2"></polyline></svg>